<?xml version="1.0" encoding="utf-8" standalone="no"?>
<!DOCTYPE svg PUBLIC "-//W3C//DTD SVG 1.1//EN"
  "http://www.w3.org/Graphics/SVG/1.1/DTD/svg11.dtd">
<svg xmlns:xlink="http://www.w3.org/1999/xlink" width="324pt" height="180pt" viewBox="0 0 324 180" xmlns="http://www.w3.org/2000/svg" version="1.1">
 <metadata>
  <rdf:RDF xmlns:dc="http://purl.org/dc/elements/1.1/" xmlns:cc="http://creativecommons.org/ns#" xmlns:rdf="http://www.w3.org/1999/02/22-rdf-syntax-ns#">
   <cc:Work>
    <dc:type rdf:resource="http://purl.org/dc/dcmitype/StillImage"/>
    <dc:date>2026-01-15T07:56:52.092390</dc:date>
    <dc:format>image/svg+xml</dc:format>
    <dc:creator>
     <cc:Agent>
      <dc:title>Matplotlib v3.10.6, https://matplotlib.org/</dc:title>
     </cc:Agent>
    </dc:creator>
   </cc:Work>
  </rdf:RDF>
 </metadata>
 <defs>
  <style type="text/css">*{stroke-linejoin: round; stroke-linecap: butt}</style>
 </defs>
 <g id="figure_1">
  <g id="patch_1">
   <path d="M 0 180 
L 324 180 
L 324 0 
L 0 0 
z
" style="fill: #ffffff"/>
  </g>
  <g id="axes_1">
   <g id="patch_2">
    <path d="M 20.25 54 
C 25.262339 54 30.07006 52.482725 33.614318 49.782338 
C 37.158577 47.08195 39.15 43.418925 39.15 39.6 
C 39.15 35.781075 37.158577 32.11805 33.614318 29.417662 
C 30.07006 26.717275 25.262339 25.2 20.25 25.2 
C 15.237661 25.2 10.42994 26.717275 6.885682 29.417662 
C 3.341423 32.11805 1.35 35.781075 1.35 39.6 
C 1.35 43.418925 3.341423 47.08195 6.885682 49.782338 
C 10.42994 52.482725 15.237661 54 20.25 54 
z
" clip-path="url(#p15c15c1908)" style="fill: #e3f2fd; stroke: #000000; stroke-width: 1.2; stroke-linejoin: miter"/>
   </g>
   <g id="patch_3">
    <path d="M 20.25 154.8 
C 25.262339 154.8 30.07006 153.282725 33.614318 150.582338 
C 37.158577 147.88195 39.15 144.218925 39.15 140.4 
C 39.15 136.581075 37.158577 132.91805 33.614318 130.217662 
C 30.07006 127.517275 25.262339 126 20.25 126 
C 15.237661 126 10.42994 127.517275 6.885682 130.217662 
C 3.341423 132.91805 1.35 136.581075 1.35 140.4 
C 1.35 144.218925 3.341423 147.88195 6.885682 150.582338 
C 10.42994 153.282725 15.237661 154.8 20.25 154.8 
z
" clip-path="url(#p15c15c1908)" style="fill: #e3f2fd; stroke: #000000; stroke-width: 1.2; stroke-linejoin: miter"/>
   </g>
   <g id="patch_4">
    <path d="M 114.75 54 
C 119.762339 54 124.57006 52.482725 128.114318 49.782338 
C 131.658577 47.08195 133.65 43.418925 133.65 39.6 
C 133.65 35.781075 131.658577 32.11805 128.114318 29.417662 
C 124.57006 26.717275 119.762339 25.2 114.75 25.2 
C 109.737661 25.2 104.92994 26.717275 101.385682 29.417662 
C 97.841423 32.11805 95.85 35.781075 95.85 39.6 
C 95.85 43.418925 97.841423 47.08195 101.385682 49.782338 
C 104.92994 52.482725 109.737661 54 114.75 54 
z
" clip-path="url(#p15c15c1908)" style="fill: #e3f2fd; stroke: #000000; stroke-width: 1.2; stroke-linejoin: miter"/>
   </g>
   <g id="patch_5">
    <path d="M 114.75 154.8 
C 119.762339 154.8 124.57006 153.282725 128.114318 150.582338 
C 131.658577 147.88195 133.65 144.218925 133.65 140.4 
C 133.65 136.581075 131.658577 132.91805 128.114318 130.217662 
C 124.57006 127.517275 119.762339 126 114.75 126 
C 109.737661 126 104.92994 127.517275 101.385682 130.217662 
C 97.841423 132.91805 95.85 136.581075 95.85 140.4 
C 95.85 144.218925 97.841423 147.88195 101.385682 150.582338 
C 104.92994 153.282725 109.737661 154.8 114.75 154.8 
z
" clip-path="url(#p15c15c1908)" style="fill: #e3f2fd; stroke: #000000; stroke-width: 1.2; stroke-linejoin: miter"/>
   </g>
   <g id="patch_6">
    <path d="M 209.25 54 
C 214.262339 54 219.07006 52.482725 222.614318 49.782338 
C 226.158577 47.08195 228.15 43.418925 228.15 39.6 
C 228.15 35.781075 226.158577 32.11805 222.614318 29.417662 
C 219.07006 26.717275 214.262339 25.2 209.25 25.2 
C 204.237661 25.2 199.42994 26.717275 195.885682 29.417662 
C 192.341423 32.11805 190.35 35.781075 190.35 39.6 
C 190.35 43.418925 192.341423 47.08195 195.885682 49.782338 
C 199.42994 52.482725 204.237661 54 209.25 54 
z
" clip-path="url(#p15c15c1908)" style="fill: #e3f2fd; stroke: #000000; stroke-width: 1.2; stroke-linejoin: miter"/>
   </g>
   <g id="patch_7">
    <path d="M 209.25 154.8 
C 214.262339 154.8 219.07006 153.282725 222.614318 150.582338 
C 226.158577 147.88195 228.15 144.218925 228.15 140.4 
C 228.15 136.581075 226.158577 132.91805 222.614318 130.217662 
C 219.07006 127.517275 214.262339 126 209.25 126 
C 204.237661 126 199.42994 127.517275 195.885682 130.217662 
C 192.341423 132.91805 190.35 136.581075 190.35 140.4 
C 190.35 144.218925 192.341423 147.88195 195.885682 150.582338 
C 199.42994 153.282725 204.237661 154.8 209.25 154.8 
z
" clip-path="url(#p15c15c1908)" style="fill: #e3f2fd; stroke: #000000; stroke-width: 1.2; stroke-linejoin: miter"/>
   </g>
   <g id="patch_8">
    <path d="M 303.75 54 
C 308.762339 54 313.57006 52.482725 317.114318 49.782338 
C 320.658577 47.08195 322.65 43.418925 322.65 39.6 
C 322.65 35.781075 320.658577 32.11805 317.114318 29.417662 
C 313.57006 26.717275 308.762339 25.2 303.75 25.2 
C 298.737661 25.2 293.92994 26.717275 290.385682 29.417662 
C 286.841423 32.11805 284.85 35.781075 284.85 39.6 
C 284.85 43.418925 286.841423 47.08195 290.385682 49.782338 
C 293.92994 52.482725 298.737661 54 303.75 54 
z
" clip-path="url(#p15c15c1908)" style="fill: #e3f2fd; stroke: #000000; stroke-width: 1.2; stroke-linejoin: miter"/>
   </g>
   <g id="patch_9">
    <path d="M 303.75 154.8 
C 308.762339 154.8 313.57006 153.282725 317.114318 150.582338 
C 320.658577 147.88195 322.65 144.218925 322.65 140.4 
C 322.65 136.581075 320.658577 132.91805 317.114318 130.217662 
C 313.57006 127.517275 308.762339 126 303.75 126 
C 298.737661 126 293.92994 127.517275 290.385682 130.217662 
C 286.841423 132.91805 284.85 136.581075 284.85 140.4 
C 284.85 144.218925 286.841423 147.88195 290.385682 150.582338 
C 293.92994 153.282725 298.737661 154.8 303.75 154.8 
z
" clip-path="url(#p15c15c1908)" style="fill: #e3f2fd; stroke: #000000; stroke-width: 1.2; stroke-linejoin: miter"/>
   </g>
   <g id="text_1">
    <!-- S0 -->
    <g transform="translate(13.894531 42.359375) scale(0.1 -0.1)">
     <defs>
      <path id="DejaVuSans-53" d="M 3425 4513 
L 3425 3897 
Q 3066 4069 2747 4153 
Q 2428 4238 2131 4238 
Q 1616 4238 1336 4038 
Q 1056 3838 1056 3469 
Q 1056 3159 1242 3001 
Q 1428 2844 1947 2747 
L 2328 2669 
Q 3034 2534 3370 2195 
Q 3706 1856 3706 1288 
Q 3706 609 3251 259 
Q 2797 -91 1919 -91 
Q 1588 -91 1214 -16 
Q 841 59 441 206 
L 441 856 
Q 825 641 1194 531 
Q 1563 422 1919 422 
Q 2459 422 2753 634 
Q 3047 847 3047 1241 
Q 3047 1584 2836 1778 
Q 2625 1972 2144 2069 
L 1759 2144 
Q 1053 2284 737 2584 
Q 422 2884 422 3419 
Q 422 4038 858 4394 
Q 1294 4750 2059 4750 
Q 2388 4750 2728 4690 
Q 3069 4631 3425 4513 
z
" transform="scale(0.015625)"/>
      <path id="DejaVuSans-30" d="M 2034 4250 
Q 1547 4250 1301 3770 
Q 1056 3291 1056 2328 
Q 1056 1369 1301 889 
Q 1547 409 2034 409 
Q 2525 409 2770 889 
Q 3016 1369 3016 2328 
Q 3016 3291 2770 3770 
Q 2525 4250 2034 4250 
z
M 2034 4750 
Q 2819 4750 3233 4129 
Q 3647 3509 3647 2328 
Q 3647 1150 3233 529 
Q 2819 -91 2034 -91 
Q 1250 -91 836 529 
Q 422 1150 422 2328 
Q 422 3509 836 4129 
Q 1250 4750 2034 4750 
z
" transform="scale(0.015625)"/>
     </defs>
     <use xlink:href="#DejaVuSans-53"/>
     <use xlink:href="#DejaVuSans-30" transform="translate(63.476562 0)"/>
    </g>
   </g>
   <g id="text_2">
    <!-- S0 -->
    <g transform="translate(13.894531 143.159375) scale(0.1 -0.1)">
     <use xlink:href="#DejaVuSans-53"/>
     <use xlink:href="#DejaVuSans-30" transform="translate(63.476562 0)"/>
    </g>
   </g>
   <g id="text_3">
    <!-- S1 -->
    <g transform="translate(108.394531 42.359375) scale(0.1 -0.1)">
     <defs>
      <path id="DejaVuSans-31" d="M 794 531 
L 1825 531 
L 1825 4091 
L 703 3866 
L 703 4441 
L 1819 4666 
L 2450 4666 
L 2450 531 
L 3481 531 
L 3481 0 
L 794 0 
L 794 531 
z
" transform="scale(0.015625)"/>
     </defs>
     <use xlink:href="#DejaVuSans-53"/>
     <use xlink:href="#DejaVuSans-31" transform="translate(63.476562 0)"/>
    </g>
   </g>
   <g id="text_4">
    <!-- S1 -->
    <g transform="translate(108.394531 143.159375) scale(0.1 -0.1)">
     <use xlink:href="#DejaVuSans-53"/>
     <use xlink:href="#DejaVuSans-31" transform="translate(63.476562 0)"/>
    </g>
   </g>
   <g id="text_5">
    <!-- S2 -->
    <g transform="translate(202.894531 42.359375) scale(0.1 -0.1)">
     <defs>
      <path id="DejaVuSans-32" d="M 1228 531 
L 3431 531 
L 3431 0 
L 469 0 
L 469 531 
Q 828 903 1448 1529 
Q 2069 2156 2228 2338 
Q 2531 2678 2651 2914 
Q 2772 3150 2772 3378 
Q 2772 3750 2511 3984 
Q 2250 4219 1831 4219 
Q 1534 4219 1204 4116 
Q 875 4013 500 3803 
L 500 4441 
Q 881 4594 1212 4672 
Q 1544 4750 1819 4750 
Q 2544 4750 2975 4387 
Q 3406 4025 3406 3419 
Q 3406 3131 3298 2873 
Q 3191 2616 2906 2266 
Q 2828 2175 2409 1742 
Q 1991 1309 1228 531 
z
" transform="scale(0.015625)"/>
     </defs>
     <use xlink:href="#DejaVuSans-53"/>
     <use xlink:href="#DejaVuSans-32" transform="translate(63.476562 0)"/>
    </g>
   </g>
   <g id="text_6">
    <!-- S2 -->
    <g transform="translate(202.894531 143.159375) scale(0.1 -0.1)">
     <use xlink:href="#DejaVuSans-53"/>
     <use xlink:href="#DejaVuSans-32" transform="translate(63.476562 0)"/>
    </g>
   </g>
   <g id="text_7">
    <!-- S3 -->
    <g transform="translate(297.394531 42.359375) scale(0.1 -0.1)">
     <defs>
      <path id="DejaVuSans-33" d="M 2597 2516 
Q 3050 2419 3304 2112 
Q 3559 1806 3559 1356 
Q 3559 666 3084 287 
Q 2609 -91 1734 -91 
Q 1441 -91 1130 -33 
Q 819 25 488 141 
L 488 750 
Q 750 597 1062 519 
Q 1375 441 1716 441 
Q 2309 441 2620 675 
Q 2931 909 2931 1356 
Q 2931 1769 2642 2001 
Q 2353 2234 1838 2234 
L 1294 2234 
L 1294 2753 
L 1863 2753 
Q 2328 2753 2575 2939 
Q 2822 3125 2822 3475 
Q 2822 3834 2567 4026 
Q 2313 4219 1838 4219 
Q 1578 4219 1281 4162 
Q 984 4106 628 3988 
L 628 4550 
Q 988 4650 1302 4700 
Q 1616 4750 1894 4750 
Q 2613 4750 3031 4423 
Q 3450 4097 3450 3541 
Q 3450 3153 3228 2886 
Q 3006 2619 2597 2516 
z
" transform="scale(0.015625)"/>
     </defs>
     <use xlink:href="#DejaVuSans-53"/>
     <use xlink:href="#DejaVuSans-33" transform="translate(63.476562 0)"/>
    </g>
   </g>
   <g id="text_8">
    <!-- S3 -->
    <g transform="translate(297.394531 143.159375) scale(0.1 -0.1)">
     <use xlink:href="#DejaVuSans-53"/>
     <use xlink:href="#DejaVuSans-33" transform="translate(63.476562 0)"/>
    </g>
   </g>
   <g id="patch_10">
    <path d="M 45.87355 39.6 
Q 67.498076 39.6 87.78096 39.6 
" style="fill: none; stroke: #000000; stroke-width: 1.2; stroke-linecap: round"/>
    <path d="M 83.78096 37.6 
L 87.78096 39.6 
L 83.78096 41.6 
" style="fill: none; stroke: #000000; stroke-width: 1.2; stroke-linecap: round"/>
   </g>
   <g id="patch_11">
    <path d="M 45.87355 140.4 
Q 67.498076 140.4 87.78096 140.4 
" style="fill: none; stroke: #000000; stroke-width: 1.2; stroke-linecap: round"/>
    <path d="M 83.78096 138.4 
L 87.78096 140.4 
L 83.78096 142.4 
" style="fill: none; stroke: #000000; stroke-width: 1.2; stroke-linecap: round"/>
   </g>
   <g id="patch_12">
    <path d="M 140.37355 39.6 
Q 161.998076 39.6 182.28096 39.6 
" style="fill: none; stroke: #000000; stroke-width: 1.2; stroke-linecap: round"/>
    <path d="M 178.28096 37.6 
L 182.28096 39.6 
L 178.28096 41.6 
" style="fill: none; stroke: #000000; stroke-width: 1.2; stroke-linecap: round"/>
   </g>
   <g id="patch_13">
    <path d="M 140.37355 140.4 
Q 161.998076 140.4 182.28096 140.4 
" style="fill: none; stroke: #000000; stroke-width: 1.2; stroke-linecap: round"/>
    <path d="M 178.28096 138.4 
L 182.28096 140.4 
L 178.28096 142.4 
" style="fill: none; stroke: #000000; stroke-width: 1.2; stroke-linecap: round"/>
   </g>
   <g id="patch_14">
    <path d="M 234.87355 39.6 
Q 256.498076 39.6 276.78096 39.6 
" style="fill: none; stroke: #000000; stroke-width: 1.2; stroke-linecap: round"/>
    <path d="M 272.78096 37.6 
L 276.78096 39.6 
L 272.78096 41.6 
" style="fill: none; stroke: #000000; stroke-width: 1.2; stroke-linecap: round"/>
   </g>
   <g id="patch_15">
    <path d="M 234.87355 140.4 
Q 256.498076 140.4 276.78096 140.4 
" style="fill: none; stroke: #000000; stroke-width: 1.2; stroke-linecap: round"/>
    <path d="M 272.78096 138.4 
L 276.78096 140.4 
L 272.78096 142.4 
" style="fill: none; stroke: #000000; stroke-width: 1.2; stroke-linecap: round"/>
   </g>
  </g>
 </g>
 <defs>
  <clipPath id="p15c15c1908">
   <rect x="10.8" y="10.8" width="302.4" height="158.4"/>
  </clipPath>
 </defs>
</svg>
