<?xml version="1.0" encoding="utf-8"?>
<!-- Generator: Adobe Illustrator 16.0.4, SVG Export Plug-In . SVG Version: 6.00 Build 0)  -->
<!DOCTYPE svg PUBLIC "-//W3C//DTD SVG 1.1//EN" "http://www.w3.org/Graphics/SVG/1.1/DTD/svg11.dtd">
<svg version="1.1" id="Layer_1" xmlns="http://www.w3.org/2000/svg" xmlns:xlink="http://www.w3.org/1999/xlink" x="0px" y="0px"
	 width="362.51px" height="155px" viewBox="0 0 362.51 155" enable-background="new 0 0 362.51 155" xml:space="preserve">
<line fill="none" stroke="#A7A9AC" stroke-width="1.059" stroke-miterlimit="10" x1="290.541" y1="14.833" x2="290.541" y2="127.167"/>
<line fill="none" stroke="#A7A9AC" stroke-width="1.059" stroke-miterlimit="10" x1="262.753" y1="14.667" x2="262.753" y2="127"/>
<line fill="none" stroke="#A7A9AC" stroke-width="1.059" stroke-miterlimit="10" x1="193.541" y1="13.833" x2="193.541" y2="127.167"/>
<line fill="none" stroke="#A7A9AC" stroke-width="1.059" stroke-miterlimit="10" x1="165.753" y1="13.667" x2="165.753" y2="127"/>
<line fill="none" stroke="#A7A9AC" stroke-width="1.059" stroke-miterlimit="10" x1="98.577" y1="14.167" x2="98.577" y2="126.5"/>
<line fill="none" stroke="#A7A9AC" stroke-width="1.059" stroke-miterlimit="10" x1="69.789" y1="14" x2="69.789" y2="127.333"/>
<line fill="none" stroke="#ED1C24" stroke-width="2" stroke-miterlimit="10" x1="2.498" y1="89.092" x2="69.789" y2="89.092"/>
<line fill="none" stroke="#000000" stroke-width="2" stroke-miterlimit="10" x1="2.498" y1="126.297" x2="69.789" y2="126.297"/>
<line fill="none" stroke="#000000" stroke-width="2" stroke-miterlimit="10" x1="98.769" y1="126.295" x2="166.061" y2="126.295"/>
<g>
	<g>
		<line fill="none" stroke="#939598" stroke-miterlimit="10" x1="69.789" y1="126.297" x2="70.404" y2="125.508"/>
		
			<line fill="none" stroke="#939598" stroke-miterlimit="10" stroke-dasharray="1.9634,1.9634" x1="71.61" y1="123.959" x2="97.551" y2="90.657"/>
		<line fill="none" stroke="#939598" stroke-miterlimit="10" x1="98.154" y1="89.883" x2="98.769" y2="89.094"/>
	</g>
</g>
<g>
	<g>
		<line fill="none" stroke="#939598" stroke-miterlimit="10" x1="69.789" y1="89.092" x2="70.404" y2="89.881"/>
		
			<line fill="none" stroke="#939598" stroke-miterlimit="10" stroke-dasharray="1.9634,1.9634" x1="71.61" y1="91.43" x2="97.551" y2="124.731"/>
		<line fill="none" stroke="#939598" stroke-miterlimit="10" x1="98.154" y1="125.506" x2="98.769" y2="126.295"/>
	</g>
</g>
<polyline fill="none" stroke="#00A651" stroke-width="2" stroke-miterlimit="10" points="2.498,51.887 69.789,51.887 98.769,14.682 
	166.061,14.682 "/>
<g>
	<path fill="none" d="M166.061,126.295"/>
</g>
<g>
	<path fill="none" d="M195.038,126.295"/>
</g>
<path fill="none" stroke="#2E3192" stroke-width="3.1771" stroke-miterlimit="10" d="M166.061,14.682"/>
<g>
	<g>
		<line fill="none" stroke="#ED1C24" stroke-width="2" stroke-miterlimit="10" x1="72.2" y1="89.092" x2="92.168" y2="89.092"/>
		<g>
			<path fill="#ED1C24" d="M95.789,89.092c-1.704,0.632-3.818,1.711-5.128,2.854l1.032-2.854l-1.032-2.853
				C91.971,87.382,94.085,88.46,95.789,89.092z"/>
		</g>
	</g>
</g>
<g>
	<g>
		<line fill="none" stroke="#000000" stroke-width="2" stroke-miterlimit="10" x1="72.485" y1="126.297" x2="92.453" y2="126.297"/>
		<g>
			<path d="M96.074,126.297c-1.704,0.632-3.818,1.711-5.128,2.854l1.032-2.854l-1.032-2.853
				C92.256,124.587,94.37,125.665,96.074,126.297z"/>
		</g>
	</g>
</g>
<g>
	<path d="M66.96,136.576c0,0.484,0.1,0.859,0.301,1.121c0.201,0.264,0.494,0.395,0.879,0.395c0.305,0,0.549-0.061,0.732-0.184
		c0.184-0.121,0.308-0.277,0.373-0.465l0.617,0.176c-0.252,0.668-0.827,1-1.723,1c-0.625,0-1.101-0.186-1.428-0.559
		c-0.327-0.371-0.49-0.926-0.49-1.66c0-0.697,0.164-1.232,0.49-1.605c0.327-0.371,0.793-0.559,1.4-0.559
		c1.242,0,1.863,0.75,1.863,2.246v0.094H66.96z M69.249,136.037c-0.039-0.445-0.152-0.77-0.34-0.975
		c-0.188-0.203-0.457-0.307-0.809-0.307c-0.341,0-0.611,0.115-0.811,0.342c-0.199,0.229-0.307,0.541-0.322,0.939H69.249z"/>
	<path d="M73.46,138.541l-1.137-1.734l-1.145,1.734h-0.758l1.504-2.172l-1.434-2.055h0.777l1.055,1.645l1.047-1.645h0.785
		l-1.434,2.047l1.523,2.18H73.46z"/>
	<path d="M75.405,136.408c0,0.562,0.088,0.98,0.266,1.25c0.177,0.271,0.444,0.406,0.801,0.406c0.25,0,0.459-0.066,0.627-0.203
		c0.168-0.135,0.271-0.344,0.311-0.625l0.711,0.047c-0.055,0.406-0.228,0.73-0.52,0.973s-0.662,0.363-1.109,0.363
		c-0.591,0-1.042-0.186-1.354-0.561c-0.311-0.373-0.467-0.918-0.467-1.635c0-0.711,0.156-1.252,0.469-1.627
		c0.312-0.373,0.76-0.561,1.344-0.561c0.432,0,0.791,0.113,1.076,0.336c0.285,0.225,0.464,0.533,0.537,0.926l-0.723,0.055
		c-0.037-0.234-0.129-0.42-0.277-0.559c-0.148-0.137-0.359-0.207-0.633-0.207c-0.373,0-0.642,0.125-0.809,0.371
		C75.489,135.406,75.405,135.822,75.405,136.408z"/>
	<path d="M79.569,135.037c0.151-0.275,0.333-0.479,0.545-0.607s0.481-0.193,0.807-0.193c0.458,0,0.796,0.115,1.014,0.342
		c0.217,0.229,0.326,0.611,0.326,1.146v2.816h-0.707v-2.68c0-0.297-0.027-0.518-0.082-0.662s-0.145-0.25-0.27-0.318
		c-0.125-0.066-0.298-0.102-0.52-0.102c-0.331,0-0.596,0.115-0.795,0.344c-0.199,0.23-0.299,0.539-0.299,0.926v2.492h-0.703v-5.797
		h0.703v1.508c0,0.16-0.004,0.324-0.014,0.492c-0.009,0.17-0.015,0.268-0.018,0.293H79.569z"/>
	<path d="M84.397,138.619c-0.424,0-0.744-0.111-0.957-0.336c-0.213-0.223-0.32-0.531-0.32-0.922c0-0.438,0.144-0.773,0.432-1.008
		s0.752-0.359,1.393-0.375l0.949-0.016v-0.23c0-0.344-0.073-0.59-0.219-0.738s-0.375-0.223-0.688-0.223
		c-0.315,0-0.544,0.055-0.688,0.16c-0.143,0.107-0.229,0.277-0.258,0.512l-0.734-0.066c0.12-0.76,0.685-1.141,1.695-1.141
		c0.531,0,0.931,0.123,1.199,0.365c0.268,0.244,0.402,0.596,0.402,1.057v1.82c0,0.209,0.027,0.365,0.082,0.471
		s0.159,0.158,0.312,0.158c0.068,0,0.145-0.008,0.23-0.027v0.438c-0.177,0.043-0.358,0.062-0.543,0.062
		c-0.26,0-0.45-0.068-0.568-0.205s-0.186-0.35-0.201-0.643h-0.023c-0.18,0.324-0.389,0.553-0.627,0.686
		C85.028,138.553,84.739,138.619,84.397,138.619z M84.558,138.092c0.258,0,0.487-0.059,0.688-0.176s0.359-0.277,0.475-0.482
		c0.116-0.203,0.174-0.414,0.174-0.631v-0.348l-0.77,0.016c-0.331,0.006-0.582,0.039-0.752,0.102s-0.301,0.16-0.393,0.289
		c-0.091,0.131-0.137,0.301-0.137,0.512c0,0.23,0.062,0.406,0.186,0.531S84.329,138.092,84.558,138.092z"/>
	<path d="M90.452,138.541v-2.68c0-0.277-0.027-0.494-0.082-0.648c-0.055-0.152-0.142-0.264-0.262-0.332
		c-0.12-0.066-0.295-0.102-0.527-0.102c-0.338,0-0.605,0.117-0.801,0.348c-0.195,0.232-0.293,0.555-0.293,0.965v2.449h-0.703v-3.324
		c0-0.492-0.008-0.793-0.023-0.902h0.664c0.002,0.014,0.005,0.049,0.008,0.105c0.002,0.059,0.006,0.123,0.01,0.197
		s0.008,0.215,0.014,0.42h0.012c0.162-0.291,0.348-0.498,0.561-0.619s0.476-0.182,0.791-0.182c0.463,0,0.803,0.115,1.018,0.346
		s0.322,0.611,0.322,1.143v2.816H90.452z"/>
	<path d="M93.819,140.201c-0.461,0-0.828-0.09-1.102-0.271c-0.273-0.18-0.449-0.438-0.527-0.771l0.707-0.102
		c0.047,0.195,0.15,0.346,0.311,0.451s0.371,0.158,0.631,0.158c0.701,0,1.051-0.41,1.051-1.23v-0.68h-0.008
		c-0.133,0.271-0.315,0.475-0.547,0.611s-0.502,0.205-0.812,0.205c-0.518,0-0.899-0.172-1.143-0.516s-0.365-0.883-0.365-1.621
		c0-0.746,0.131-1.299,0.393-1.654s0.66-0.533,1.193-0.533c0.299,0,0.559,0.068,0.779,0.205s0.39,0.332,0.51,0.584h0.008
		c0-0.078,0.005-0.213,0.016-0.406c0.01-0.191,0.021-0.297,0.031-0.316h0.668c-0.016,0.141-0.023,0.434-0.023,0.875v3.23
		C95.589,139.607,94.999,140.201,93.819,140.201z M94.89,136.428c0-0.344-0.047-0.639-0.141-0.889
		c-0.094-0.248-0.226-0.438-0.396-0.57c-0.17-0.131-0.364-0.197-0.58-0.197c-0.359,0-0.621,0.131-0.785,0.391
		c-0.164,0.262-0.246,0.684-0.246,1.266c0,0.578,0.077,0.994,0.23,1.246c0.154,0.254,0.417,0.379,0.789,0.379
		c0.221,0,0.418-0.064,0.59-0.195c0.172-0.129,0.305-0.316,0.398-0.561C94.843,137.055,94.89,136.764,94.89,136.428z"/>
	<path d="M97.206,136.576c0,0.484,0.1,0.859,0.301,1.121c0.201,0.264,0.494,0.395,0.879,0.395c0.305,0,0.549-0.061,0.732-0.184
		c0.184-0.121,0.308-0.277,0.373-0.465l0.617,0.176c-0.252,0.668-0.827,1-1.723,1c-0.625,0-1.101-0.186-1.428-0.559
		c-0.327-0.371-0.49-0.926-0.49-1.66c0-0.697,0.164-1.232,0.49-1.605c0.327-0.371,0.793-0.559,1.4-0.559
		c1.242,0,1.863,0.75,1.863,2.246v0.094H97.206z M99.495,136.037c-0.039-0.445-0.152-0.77-0.34-0.975
		c-0.188-0.203-0.457-0.307-0.809-0.307c-0.341,0-0.611,0.115-0.811,0.342c-0.199,0.229-0.307,0.541-0.322,0.939H99.495z"/>
	<path d="M71.507,148.219c-0.424,0-0.744-0.111-0.957-0.336c-0.213-0.223-0.32-0.531-0.32-0.922c0-0.438,0.144-0.773,0.432-1.008
		s0.752-0.359,1.393-0.375l0.949-0.016v-0.23c0-0.344-0.073-0.59-0.219-0.738s-0.375-0.223-0.688-0.223
		c-0.315,0-0.544,0.055-0.688,0.16c-0.143,0.107-0.229,0.277-0.258,0.512l-0.734-0.066c0.12-0.76,0.685-1.141,1.695-1.141
		c0.531,0,0.931,0.123,1.199,0.365c0.268,0.244,0.402,0.596,0.402,1.057v1.82c0,0.209,0.027,0.365,0.082,0.471
		s0.159,0.158,0.312,0.158c0.068,0,0.145-0.008,0.23-0.027v0.438c-0.177,0.043-0.358,0.062-0.543,0.062
		c-0.26,0-0.45-0.068-0.568-0.205s-0.186-0.35-0.201-0.643h-0.023c-0.18,0.324-0.389,0.553-0.627,0.686
		C72.138,148.152,71.848,148.219,71.507,148.219z M71.667,147.691c0.258,0,0.487-0.059,0.688-0.176s0.359-0.277,0.475-0.482
		c0.116-0.203,0.174-0.414,0.174-0.631v-0.348l-0.77,0.016c-0.331,0.006-0.582,0.039-0.752,0.102s-0.301,0.16-0.393,0.289
		c-0.091,0.131-0.137,0.301-0.137,0.512c0,0.23,0.062,0.406,0.186,0.531S71.438,147.691,71.667,147.691z"/>
	<path d="M76.503,148.109c-0.232,0.062-0.469,0.094-0.711,0.094c-0.562,0-0.844-0.318-0.844-0.957v-2.82H74.46v-0.512h0.516
		l0.207-0.945h0.469v0.945h0.781v0.512h-0.781v2.668c0,0.203,0.033,0.346,0.1,0.428s0.182,0.123,0.346,0.123
		c0.094,0,0.229-0.018,0.406-0.055V148.109z"/>
	<path d="M78.726,148.109c-0.232,0.062-0.469,0.094-0.711,0.094c-0.562,0-0.844-0.318-0.844-0.957v-2.82h-0.488v-0.512h0.516
		l0.207-0.945h0.469v0.945h0.781v0.512h-0.781v2.668c0,0.203,0.033,0.346,0.1,0.428s0.182,0.123,0.346,0.123
		c0.094,0,0.229-0.018,0.406-0.055V148.109z"/>
	<path d="M79.862,146.176c0,0.484,0.1,0.859,0.301,1.121c0.201,0.264,0.494,0.395,0.879,0.395c0.305,0,0.549-0.061,0.732-0.184
		c0.184-0.121,0.308-0.277,0.373-0.465l0.617,0.176c-0.252,0.668-0.827,1-1.723,1c-0.625,0-1.101-0.186-1.428-0.559
		c-0.327-0.371-0.49-0.926-0.49-1.66c0-0.697,0.164-1.232,0.49-1.605c0.327-0.371,0.793-0.559,1.4-0.559
		c1.242,0,1.863,0.75,1.863,2.246v0.094H79.862z M82.151,145.637c-0.039-0.445-0.152-0.77-0.34-0.975
		c-0.188-0.203-0.457-0.307-0.809-0.307c-0.341,0-0.611,0.115-0.811,0.342c-0.199,0.229-0.307,0.541-0.322,0.939H82.151z"/>
	<path d="M86.233,148.141v-2.68c0-0.408-0.056-0.691-0.168-0.848s-0.314-0.234-0.605-0.234c-0.299,0-0.537,0.115-0.711,0.344
		c-0.174,0.23-0.262,0.553-0.262,0.969v2.449h-0.699v-3.324c0-0.492-0.008-0.793-0.023-0.902h0.664
		c0.002,0.014,0.005,0.049,0.008,0.105c0.002,0.059,0.006,0.123,0.01,0.197s0.008,0.215,0.014,0.42h0.012
		c0.151-0.299,0.324-0.508,0.52-0.625s0.434-0.176,0.715-0.176c0.32,0,0.574,0.064,0.76,0.191c0.186,0.129,0.316,0.332,0.389,0.609
		h0.012c0.146-0.283,0.322-0.488,0.529-0.613s0.458-0.188,0.752-0.188c0.427,0,0.738,0.117,0.932,0.348
		c0.194,0.232,0.291,0.613,0.291,1.141v2.816h-0.695v-2.68c0-0.408-0.056-0.691-0.168-0.848s-0.314-0.234-0.605-0.234
		c-0.307,0-0.546,0.115-0.717,0.342c-0.17,0.229-0.256,0.553-0.256,0.971v2.449H86.233z"/>
	<path d="M94.011,146.008c0,1.475-0.518,2.211-1.555,2.211c-0.651,0-1.088-0.244-1.312-0.734h-0.02
		c0.01,0.021,0.016,0.242,0.016,0.664v1.652h-0.703v-5.023c0-0.434-0.008-0.723-0.023-0.863h0.68
		c0.002,0.012,0.006,0.049,0.012,0.111c0.005,0.064,0.011,0.162,0.018,0.295s0.01,0.225,0.01,0.273h0.016
		c0.125-0.26,0.291-0.451,0.496-0.572s0.477-0.182,0.812-0.182c0.521,0,0.91,0.176,1.168,0.523
		C93.882,144.713,94.011,145.262,94.011,146.008z M93.272,146.023c0-0.588-0.08-1.008-0.238-1.262
		c-0.159-0.252-0.412-0.379-0.758-0.379c-0.279,0-0.497,0.059-0.654,0.176s-0.277,0.301-0.359,0.549
		c-0.082,0.25-0.123,0.572-0.123,0.971c0,0.555,0.088,0.965,0.266,1.227c0.177,0.264,0.465,0.395,0.863,0.395
		c0.349,0,0.604-0.127,0.764-0.385C93.192,147.059,93.272,146.629,93.272,146.023z"/>
	<path d="M96.511,148.109c-0.232,0.062-0.469,0.094-0.711,0.094c-0.562,0-0.844-0.318-0.844-0.957v-2.82h-0.488v-0.512h0.516
		l0.207-0.945h0.469v0.945h0.781v0.512h-0.781v2.668c0,0.203,0.033,0.346,0.1,0.428s0.182,0.123,0.346,0.123
		c0.094,0,0.229-0.018,0.406-0.055V148.109z"/>
</g>
<g>
	<path d="M49.197,107.752c-0.115-0.033-0.232-0.051-0.352-0.051c-0.273,0-0.52,0.145-0.74,0.43c-0.22,0.287-0.369,0.648-0.447,1.082
		l-0.43,2.203h-0.703l0.633-3.242l0.098-0.539l0.07-0.445h0.664l-0.137,0.863h0.016c0.172-0.346,0.341-0.59,0.508-0.73
		s0.359-0.211,0.578-0.211c0.12,0,0.244,0.02,0.371,0.055L49.197,107.752z"/>
	<path d="M50.057,109.451c-0.016,0.092-0.027,0.238-0.035,0.441c0,0.348,0.086,0.613,0.26,0.797
		c0.173,0.186,0.434,0.277,0.783,0.277c0.252,0,0.482-0.062,0.688-0.188s0.366-0.295,0.48-0.512l0.539,0.246
		c-0.19,0.342-0.432,0.59-0.725,0.746s-0.648,0.234-1.064,0.234c-0.523,0-0.93-0.145-1.221-0.436
		c-0.291-0.289-0.436-0.697-0.436-1.225c0-0.523,0.092-0.992,0.277-1.408c0.185-0.414,0.445-0.738,0.781-0.969
		s0.713-0.346,1.133-0.346c0.534,0,0.949,0.135,1.246,0.402c0.297,0.27,0.445,0.648,0.445,1.137c0,0.273-0.031,0.541-0.094,0.801
		H50.057z M52.494,108.912l0.016-0.281c0-0.322-0.084-0.57-0.252-0.742s-0.41-0.258-0.725-0.258c-0.349,0-0.643,0.111-0.881,0.334
		s-0.406,0.539-0.502,0.947H52.494z"/>
	<path d="M53.115,113.076c-0.146,0-0.314-0.018-0.504-0.055l0.09-0.531c0.135,0.021,0.244,0.031,0.324,0.031
		c0.154,0,0.27-0.055,0.348-0.164s0.139-0.283,0.184-0.523l0.902-4.645h0.703l-0.926,4.75c-0.081,0.412-0.212,0.705-0.395,0.877
		C53.66,112.99,53.417,113.076,53.115,113.076z M54.635,106.291l0.129-0.672h0.703l-0.129,0.672H54.635z"/>
	<path d="M56.283,109.451c-0.016,0.092-0.027,0.238-0.035,0.441c0,0.348,0.086,0.613,0.26,0.797
		c0.173,0.186,0.434,0.277,0.783,0.277c0.252,0,0.482-0.062,0.688-0.188s0.366-0.295,0.48-0.512l0.539,0.246
		c-0.19,0.342-0.432,0.59-0.725,0.746s-0.648,0.234-1.064,0.234c-0.523,0-0.93-0.145-1.221-0.436
		c-0.291-0.289-0.436-0.697-0.436-1.225c0-0.523,0.092-0.992,0.277-1.408c0.185-0.414,0.445-0.738,0.781-0.969
		s0.713-0.346,1.133-0.346c0.534,0,0.949,0.135,1.246,0.402c0.297,0.27,0.445,0.648,0.445,1.137c0,0.273-0.031,0.541-0.094,0.801
		H56.283z M58.721,108.912l0.016-0.281c0-0.322-0.084-0.57-0.252-0.742s-0.41-0.258-0.725-0.258c-0.349,0-0.643,0.111-0.881,0.334
		s-0.406,0.539-0.502,0.947H58.721z"/>
	<path d="M61.564,110.939c0.534,0,0.91-0.299,1.129-0.898l0.609,0.191c-0.315,0.842-0.9,1.262-1.754,1.262
		c-0.5,0-0.884-0.141-1.152-0.426c-0.268-0.283-0.402-0.682-0.402-1.195c0-0.52,0.094-1.004,0.283-1.453
		c0.189-0.447,0.439-0.777,0.75-0.99c0.311-0.211,0.693-0.318,1.146-0.318c0.44,0,0.789,0.111,1.045,0.332
		c0.256,0.223,0.398,0.525,0.424,0.91l-0.691,0.098c-0.016-0.252-0.094-0.447-0.234-0.584s-0.33-0.205-0.566-0.205
		c-0.328,0-0.594,0.088-0.797,0.264s-0.361,0.455-0.473,0.838s-0.168,0.762-0.168,1.133
		C60.713,110.592,60.997,110.939,61.564,110.939z"/>
	<path d="M64.807,111.494c-0.221,0-0.395-0.066-0.521-0.199s-0.189-0.309-0.189-0.527c0-0.143,0.02-0.312,0.059-0.508l0.492-2.559
		h-0.488l0.102-0.512h0.496l0.41-0.945h0.469l-0.184,0.945h0.781l-0.102,0.512H65.35l-0.488,2.52
		c-0.031,0.156-0.047,0.281-0.047,0.371c0,0.23,0.117,0.344,0.352,0.344c0.109,0,0.24-0.018,0.391-0.055l-0.074,0.52
		C65.225,111.463,65,111.494,64.807,111.494z"/>
</g>
<g>
	<path d="M47.828,34.431c-0.242,0-0.418-0.05-0.529-0.15s-0.166-0.25-0.166-0.447l0.02-0.25h-0.023
		c-0.216,0.328-0.44,0.558-0.672,0.689s-0.512,0.197-0.84,0.197c-0.365,0-0.661-0.109-0.889-0.328s-0.342-0.498-0.342-0.836
		c0-0.482,0.172-0.846,0.518-1.094s0.895-0.376,1.65-0.387l0.906-0.012c0.049-0.255,0.074-0.42,0.074-0.496
		c0-0.237-0.069-0.412-0.207-0.525s-0.33-0.17-0.574-0.17c-0.31,0-0.544,0.055-0.703,0.166s-0.273,0.279-0.344,0.506l-0.695-0.113
		c0.117-0.383,0.321-0.661,0.611-0.834s0.68-0.26,1.17-0.26c0.445,0,0.797,0.104,1.057,0.312s0.389,0.488,0.389,0.84
		c0,0.167-0.025,0.371-0.074,0.613l-0.289,1.477c-0.029,0.125-0.043,0.24-0.043,0.344c0,0.19,0.105,0.285,0.316,0.285
		c0.07,0,0.148-0.009,0.234-0.027l-0.055,0.438C48.156,34.41,47.99,34.431,47.828,34.431z M47.367,32.298l-0.777,0.016
		c-0.31,0.008-0.553,0.036-0.73,0.084s-0.314,0.109-0.412,0.184s-0.174,0.168-0.23,0.281s-0.084,0.25-0.084,0.412
		c0,0.195,0.063,0.354,0.189,0.477s0.29,0.184,0.49,0.184c0.252,0,0.48-0.054,0.684-0.162s0.371-0.25,0.504-0.424
		s0.22-0.362,0.262-0.562L47.367,32.298z"/>
	<path d="M50.488,33.916c0.534,0,0.91-0.299,1.129-0.898l0.609,0.191c-0.315,0.841-0.9,1.262-1.754,1.262
		c-0.5,0-0.884-0.142-1.152-0.426s-0.402-0.682-0.402-1.195c0-0.521,0.094-1.005,0.283-1.453s0.439-0.778,0.75-0.99
		s0.693-0.318,1.146-0.318c0.44,0,0.789,0.111,1.045,0.332s0.398,0.525,0.424,0.91l-0.691,0.098
		c-0.016-0.252-0.094-0.447-0.234-0.584s-0.33-0.205-0.566-0.205c-0.328,0-0.594,0.088-0.797,0.264s-0.361,0.455-0.473,0.838
		s-0.168,0.76-0.168,1.133C49.637,33.568,49.92,33.916,50.488,33.916z"/>
	<path d="M54.488,33.916c0.534,0,0.91-0.299,1.129-0.898l0.609,0.191c-0.315,0.841-0.9,1.262-1.754,1.262
		c-0.5,0-0.884-0.142-1.152-0.426s-0.402-0.682-0.402-1.195c0-0.521,0.094-1.005,0.283-1.453s0.439-0.778,0.75-0.99
		s0.693-0.318,1.146-0.318c0.44,0,0.789,0.111,1.045,0.332s0.398,0.525,0.424,0.91l-0.691,0.098
		c-0.016-0.252-0.094-0.447-0.234-0.584s-0.33-0.205-0.566-0.205c-0.328,0-0.594,0.088-0.797,0.264s-0.361,0.455-0.473,0.838
		s-0.168,0.76-0.168,1.133C53.637,33.568,53.92,33.916,54.488,33.916z"/>
	<path d="M57.656,32.427c-0.016,0.091-0.027,0.238-0.035,0.441c0,0.346,0.086,0.612,0.26,0.797s0.434,0.277,0.783,0.277
		c0.252,0,0.482-0.062,0.688-0.188s0.366-0.295,0.48-0.512l0.539,0.246c-0.19,0.341-0.432,0.59-0.725,0.746
		s-0.648,0.234-1.064,0.234c-0.523,0-0.93-0.145-1.221-0.436s-0.436-0.699-0.436-1.225c0-0.523,0.092-0.993,0.277-1.408
		s0.445-0.738,0.781-0.969s0.713-0.346,1.133-0.346c0.534,0,0.949,0.134,1.246,0.402s0.445,0.647,0.445,1.137
		c0,0.273-0.031,0.541-0.094,0.801H57.656z M60.094,31.888l0.016-0.281c0-0.323-0.084-0.57-0.252-0.742s-0.41-0.258-0.725-0.258
		c-0.349,0-0.643,0.111-0.881,0.334s-0.406,0.539-0.502,0.947H60.094z"/>
	<path d="M63.27,34.47c-0.32,0-0.582-0.068-0.783-0.203s-0.344-0.326-0.428-0.57h-0.02c0,0.029-0.011,0.113-0.033,0.254
		s-0.156,0.841-0.4,2.102h-0.699l0.973-5.023c0.06-0.289,0.105-0.577,0.137-0.863h0.652c0,0.07-0.008,0.178-0.025,0.322
		s-0.031,0.247-0.041,0.307h0.016c0.19-0.248,0.391-0.427,0.602-0.539S63.69,30.087,64,30.087c0.409,0,0.727,0.123,0.955,0.369
		s0.342,0.584,0.342,1.014c0,0.529-0.08,1.041-0.24,1.537s-0.385,0.864-0.676,1.104S63.72,34.47,63.27,34.47z M63.797,30.63
		c-0.258,0-0.479,0.053-0.662,0.158s-0.339,0.264-0.467,0.477s-0.228,0.478-0.301,0.797s-0.109,0.605-0.109,0.857
		c0,0.326,0.083,0.579,0.248,0.76s0.395,0.271,0.689,0.271c0.323,0,0.578-0.098,0.766-0.295s0.334-0.509,0.441-0.938
		s0.16-0.803,0.16-1.123s-0.061-0.561-0.184-0.723S64.062,30.63,63.797,30.63z"/>
	<path d="M66.629,34.47c-0.221,0-0.395-0.066-0.521-0.199s-0.189-0.309-0.189-0.527c0-0.143,0.02-0.312,0.059-0.508l0.492-2.559
		H65.98l0.102-0.512h0.496l0.41-0.945h0.469l-0.184,0.945h0.781l-0.102,0.512h-0.781l-0.488,2.52
		c-0.031,0.156-0.047,0.28-0.047,0.371c0,0.229,0.117,0.344,0.352,0.344c0.109,0,0.24-0.018,0.391-0.055l-0.074,0.52
		C67.047,34.439,66.822,34.47,66.629,34.47z"/>
</g>
<g>
	<g>
		<polyline fill="none" stroke="#00A651" stroke-width="2" stroke-miterlimit="10" points="193.038,14.682 261.33,14.682 
			262.33,14.682 290.218,51.887 358.273,51.887 		"/>
		<g>
			<polygon fill="#00A651" points="362.51,51.887 356.54,54.326 357.957,51.887 356.54,49.448 			"/>
		</g>
	</g>
</g>
<g>
	<g>
		
			<line fill="none" stroke="#000000" stroke-width="2" stroke-miterlimit="10" x1="168.353" y1="126.295" x2="188.32" y2="126.295"/>
		<g>
			<path d="M191.941,126.295c-1.704,0.632-3.818,1.711-5.129,2.854l1.032-2.854l-1.032-2.853
				C188.123,124.585,190.237,125.663,191.941,126.295z"/>
		</g>
	</g>
</g>
<path fill="none" stroke="#2E3192" stroke-width="3.1771" stroke-miterlimit="10" d="M261.938,89.094"/>
<path fill="none" stroke="#2E3192" stroke-width="3.1771" stroke-miterlimit="10" d="M202.646,89.094"/>
<g>
	<g>
		<polyline fill="none" stroke="#1C75BC" stroke-width="2" stroke-miterlimit="10" points="2.498,14.682 69.789,14.682 
			98.769,51.887 166.061,51.887 193.768,90.5 262.086,90.5 290.218,126.295 358.273,126.295 		"/>
		<g>
			<polygon fill="#1C75BC" points="362.51,126.295 356.54,128.734 357.957,126.295 356.54,123.856 			"/>
		</g>
	</g>
</g>
<g>
	<g>
		<polyline fill="none" stroke="#ED1C24" stroke-width="2" stroke-miterlimit="10" points="98.769,89.094 166.061,88.857 
			193.768,51.887 262.33,51.887 290.218,15.155 358.273,15.155 		"/>
		<g>
			<polygon fill="#ED1C24" points="362.51,15.155 356.54,17.594 357.957,15.155 356.54,12.716 			"/>
		</g>
	</g>
</g>
<g>
	<g>
		<polyline fill="none" stroke="#000000" stroke-width="2" stroke-miterlimit="10" points="193.038,126.295 262.33,126.295 
			290.218,91.094 358.273,91.094 		"/>
		<g>
			<polygon points="362.51,91.094 356.54,93.533 357.957,91.094 356.54,88.655 			"/>
		</g>
	</g>
</g>
<g>
	<path d="M14.833,8.199V5.52c0-0.409-0.056-0.691-0.168-0.848s-0.314-0.234-0.605-0.234c-0.299,0-0.537,0.115-0.711,0.344
		s-0.262,0.552-0.262,0.969v2.449h-0.699V4.875c0-0.492-0.008-0.793-0.023-0.902h0.664c0.002,0.013,0.005,0.048,0.008,0.105
		s0.006,0.123,0.01,0.197s0.008,0.214,0.014,0.42h0.012c0.151-0.299,0.324-0.508,0.52-0.625s0.434-0.176,0.715-0.176
		c0.32,0,0.574,0.064,0.76,0.191s0.316,0.331,0.389,0.609h0.012c0.146-0.284,0.322-0.488,0.529-0.613s0.458-0.188,0.752-0.188
		c0.427,0,0.738,0.116,0.932,0.348s0.291,0.612,0.291,1.141v2.816h-0.695V5.52c0-0.409-0.056-0.691-0.168-0.848
		S16.792,4.438,16.5,4.438c-0.307,0-0.546,0.114-0.717,0.342s-0.256,0.551-0.256,0.971v2.449H14.833z"/>
	<path d="M24.43,7.031c0,0.398-0.15,0.706-0.451,0.922s-0.722,0.324-1.264,0.324c-0.526,0-0.932-0.086-1.217-0.26
		s-0.471-0.443-0.557-0.811l0.621-0.121c0.06,0.227,0.184,0.393,0.371,0.498s0.448,0.158,0.781,0.158
		c0.357,0,0.618-0.055,0.783-0.164s0.248-0.273,0.248-0.492c0-0.167-0.057-0.302-0.172-0.406s-0.299-0.19-0.555-0.258l-0.504-0.133
		c-0.404-0.104-0.691-0.207-0.861-0.307s-0.304-0.222-0.4-0.365S21.11,5.298,21.11,5.09c0-0.385,0.137-0.679,0.412-0.881
		s0.675-0.303,1.201-0.303c0.466,0,0.836,0.082,1.111,0.246s0.449,0.427,0.521,0.789L23.723,5.02
		c-0.039-0.188-0.144-0.332-0.314-0.432s-0.399-0.15-0.686-0.15c-0.318,0-0.552,0.048-0.703,0.145s-0.227,0.242-0.227,0.438
		c0,0.12,0.031,0.219,0.094,0.297s0.155,0.145,0.277,0.199s0.38,0.13,0.773,0.227c0.373,0.094,0.641,0.18,0.805,0.26
		s0.293,0.167,0.389,0.264S24.3,6.473,24.352,6.6S24.43,6.87,24.43,7.031z"/>
	<path d="M26.883,8.168c-0.232,0.062-0.469,0.094-0.711,0.094c-0.562,0-0.844-0.319-0.844-0.957v-2.82H24.84V3.973h0.516
		l0.207-0.945h0.469v0.945h0.781v0.512h-0.781v2.668c0,0.203,0.033,0.346,0.1,0.428s0.182,0.123,0.346,0.123
		c0.094,0,0.229-0.018,0.406-0.055V8.168z"/>
	<path d="M28.02,6.234c0,0.484,0.1,0.858,0.301,1.121S28.814,7.75,29.2,7.75c0.305,0,0.549-0.061,0.732-0.184
		s0.308-0.277,0.373-0.465l0.617,0.176c-0.252,0.667-0.827,1-1.723,1c-0.625,0-1.101-0.186-1.428-0.559s-0.49-0.926-0.49-1.66
		c0-0.698,0.164-1.233,0.49-1.605s0.793-0.559,1.4-0.559c1.242,0,1.863,0.749,1.863,2.246v0.094H28.02z M30.309,5.695
		c-0.039-0.445-0.152-0.77-0.34-0.975s-0.457-0.307-0.809-0.307c-0.341,0-0.611,0.114-0.811,0.342s-0.307,0.541-0.322,0.939H30.309z
		"/>
	<path d="M35.504,6.066c0,1.474-0.518,2.211-1.555,2.211c-0.651,0-1.088-0.245-1.312-0.734h-0.02
		c0.01,0.021,0.016,0.242,0.016,0.664v1.652H31.93V4.836c0-0.435-0.008-0.723-0.023-0.863h0.68c0.002,0.01,0.006,0.047,0.012,0.111
		s0.011,0.162,0.018,0.295s0.01,0.224,0.01,0.273h0.016c0.125-0.26,0.291-0.451,0.496-0.572s0.477-0.182,0.812-0.182
		c0.521,0,0.91,0.174,1.168,0.523S35.504,5.319,35.504,6.066z M34.766,6.082c0-0.588-0.08-1.009-0.238-1.262
		s-0.412-0.379-0.758-0.379c-0.279,0-0.497,0.059-0.654,0.176s-0.277,0.3-0.359,0.549s-0.123,0.572-0.123,0.971
		c0,0.555,0.088,0.963,0.266,1.227s0.465,0.395,0.863,0.395c0.349,0,0.604-0.128,0.764-0.385S34.766,6.686,34.766,6.082z"/>
	<path d="M39.551,7.031c0,0.398-0.15,0.706-0.451,0.922s-0.722,0.324-1.264,0.324c-0.526,0-0.932-0.086-1.217-0.26
		s-0.471-0.443-0.557-0.811l0.621-0.121c0.06,0.227,0.184,0.393,0.371,0.498s0.448,0.158,0.781,0.158
		c0.357,0,0.618-0.055,0.783-0.164s0.248-0.273,0.248-0.492c0-0.167-0.057-0.302-0.172-0.406s-0.299-0.19-0.555-0.258l-0.504-0.133
		c-0.404-0.104-0.691-0.207-0.861-0.307s-0.304-0.222-0.4-0.365s-0.145-0.319-0.145-0.527c0-0.385,0.137-0.679,0.412-0.881
		s0.675-0.303,1.201-0.303c0.466,0,0.836,0.082,1.111,0.246s0.449,0.427,0.521,0.789L38.844,5.02
		C38.805,4.832,38.7,4.688,38.53,4.588s-0.399-0.15-0.686-0.15c-0.318,0-0.552,0.048-0.703,0.145s-0.227,0.242-0.227,0.438
		c0,0.12,0.031,0.219,0.094,0.297s0.155,0.145,0.277,0.199s0.38,0.13,0.773,0.227c0.373,0.094,0.641,0.18,0.805,0.26
		s0.293,0.167,0.389,0.264s0.168,0.208,0.221,0.334S39.551,6.87,39.551,7.031z"/>
	<path d="M46.176,6.082c0,0.74-0.163,1.291-0.488,1.652S44.89,8.277,44.27,8.277c-0.617,0-1.083-0.188-1.398-0.564
		s-0.473-0.92-0.473-1.631c0-1.458,0.631-2.188,1.895-2.188c0.646,0,1.121,0.178,1.426,0.533S46.176,5.334,46.176,6.082z
		 M45.438,6.082c0-0.583-0.086-1.007-0.26-1.271s-0.464-0.396-0.873-0.396c-0.412,0-0.709,0.135-0.893,0.404
		s-0.275,0.691-0.275,1.264c0,0.557,0.09,0.976,0.271,1.256s0.465,0.42,0.854,0.42c0.422,0,0.723-0.135,0.904-0.406
		S45.438,6.658,45.438,6.082z"/>
	<path d="M47.922,4.484v3.715h-0.703V4.484h-0.594V3.973h0.594V3.496c0-0.385,0.084-0.663,0.254-0.832S47.901,2.41,48.25,2.41
		c0.195,0,0.361,0.016,0.496,0.047v0.535c-0.117-0.021-0.221-0.031-0.312-0.031c-0.18,0-0.31,0.045-0.391,0.137
		s-0.121,0.256-0.121,0.496v0.379h0.824v0.512H47.922z"/>
	<path d="M56.293,8.199V4.527c0-0.406,0.012-0.797,0.035-1.172c-0.127,0.466-0.242,0.831-0.344,1.094l-1.422,3.75H54.04l-1.441-3.75
		l-0.219-0.664l-0.129-0.43l0.012,0.434l0.016,0.738v3.672h-0.664V2.695h0.98l1.465,3.816c0.052,0.154,0.102,0.318,0.15,0.494
		s0.08,0.303,0.096,0.381c0.021-0.104,0.064-0.262,0.131-0.475s0.111-0.346,0.135-0.4l1.438-3.816h0.957v5.504H56.293z"/>
	<path d="M63.016,5.391c0,0.568-0.111,1.064-0.332,1.49s-0.535,0.752-0.941,0.979s-0.875,0.34-1.406,0.34h-2.059V2.695h1.82
		c0.932,0,1.652,0.234,2.158,0.701S63.016,4.529,63.016,5.391z M62.266,5.391c0-0.682-0.187-1.203-0.561-1.561
		s-0.915-0.537-1.623-0.537h-1.059v4.309h1.227c0.404,0,0.758-0.088,1.064-0.266s0.541-0.432,0.705-0.766S62.266,5.844,62.266,5.391
		z"/>
</g>
<g>
	<path d="M163.878,136.869c0,0.484,0.101,0.857,0.301,1.121c0.2,0.263,0.493,0.395,0.879,0.395c0.305,0,0.549-0.062,0.732-0.184
		c0.184-0.123,0.308-0.277,0.373-0.465l0.617,0.176c-0.253,0.666-0.827,1-1.723,1c-0.625,0-1.101-0.187-1.428-0.559
		c-0.327-0.373-0.49-0.926-0.49-1.66c0-0.698,0.163-1.233,0.49-1.605c0.327-0.373,0.794-0.559,1.4-0.559
		c1.242,0,1.863,0.748,1.863,2.246v0.094H163.878z M166.167,136.33c-0.039-0.445-0.152-0.771-0.34-0.975
		c-0.188-0.205-0.457-0.307-0.809-0.307c-0.341,0-0.611,0.113-0.811,0.342c-0.199,0.228-0.307,0.541-0.322,0.939H166.167z"/>
	<path d="M170.378,138.834l-1.137-1.734l-1.145,1.734h-0.758l1.504-2.172l-1.434-2.055h0.777l1.055,1.645l1.047-1.645h0.785
		l-1.434,2.047l1.523,2.18H170.378z"/>
	<path d="M172.323,136.701c0,0.562,0.089,0.979,0.266,1.25c0.177,0.271,0.444,0.406,0.801,0.406c0.25,0,0.459-0.068,0.627-0.203
		c0.168-0.136,0.271-0.344,0.311-0.625l0.711,0.047c-0.055,0.406-0.228,0.73-0.52,0.973s-0.661,0.363-1.109,0.363
		c-0.591,0-1.042-0.188-1.354-0.561c-0.312-0.374-0.467-0.919-0.467-1.635c0-0.711,0.156-1.254,0.469-1.627
		c0.312-0.374,0.761-0.561,1.344-0.561c0.433,0,0.791,0.111,1.076,0.336c0.285,0.224,0.464,0.532,0.537,0.926l-0.723,0.055
		c-0.036-0.234-0.129-0.421-0.277-0.559c-0.148-0.139-0.359-0.207-0.633-0.207c-0.372,0-0.642,0.123-0.809,0.371
		C172.406,135.698,172.323,136.115,172.323,136.701z"/>
	<path d="M176.487,135.33c0.151-0.276,0.333-0.479,0.545-0.607s0.481-0.193,0.807-0.193c0.458,0,0.796,0.113,1.014,0.342
		c0.218,0.228,0.326,0.609,0.326,1.146v2.816h-0.707v-2.68c0-0.297-0.027-0.518-0.082-0.662s-0.145-0.251-0.27-0.318
		c-0.125-0.068-0.298-0.102-0.52-0.102c-0.331,0-0.596,0.114-0.795,0.344c-0.199,0.229-0.299,0.537-0.299,0.926v2.492h-0.703v-5.797
		h0.703v1.508c0,0.158-0.005,0.322-0.014,0.492c-0.009,0.169-0.015,0.267-0.018,0.293H176.487z"/>
	<path d="M181.315,138.912c-0.425,0-0.743-0.112-0.957-0.336c-0.214-0.225-0.32-0.531-0.32-0.922c0-0.438,0.144-0.773,0.432-1.008
		s0.752-0.359,1.393-0.375l0.949-0.016v-0.23c0-0.344-0.073-0.59-0.219-0.738s-0.375-0.223-0.688-0.223
		c-0.315,0-0.544,0.053-0.688,0.16c-0.144,0.106-0.229,0.277-0.258,0.512l-0.734-0.066c0.12-0.761,0.685-1.141,1.695-1.141
		c0.531,0,0.931,0.121,1.199,0.365c0.269,0.243,0.402,0.596,0.402,1.057v1.82c0,0.208,0.027,0.365,0.082,0.471
		s0.159,0.158,0.312,0.158c0.067,0,0.145-0.01,0.23-0.027v0.438c-0.177,0.041-0.358,0.062-0.543,0.062
		c-0.261,0-0.45-0.068-0.568-0.205s-0.186-0.352-0.201-0.643h-0.023c-0.18,0.322-0.389,0.551-0.627,0.686
		C181.946,138.845,181.656,138.912,181.315,138.912z M181.476,138.385c0.258,0,0.487-0.059,0.688-0.176s0.358-0.278,0.475-0.482
		c0.116-0.205,0.174-0.415,0.174-0.631v-0.348l-0.77,0.016c-0.331,0.005-0.581,0.039-0.752,0.102s-0.302,0.158-0.393,0.289
		c-0.091,0.13-0.137,0.301-0.137,0.512c0,0.229,0.062,0.406,0.186,0.531S181.246,138.385,181.476,138.385z"/>
	<path d="M187.37,138.834v-2.68c0-0.279-0.027-0.495-0.082-0.648c-0.055-0.154-0.142-0.265-0.262-0.332
		c-0.12-0.068-0.296-0.102-0.527-0.102c-0.339,0-0.605,0.115-0.801,0.348c-0.195,0.231-0.293,0.553-0.293,0.965v2.449h-0.703v-3.324
		c0-0.492-0.008-0.793-0.023-0.902h0.664c0.003,0.013,0.005,0.048,0.008,0.105c0.003,0.057,0.006,0.123,0.01,0.197
		s0.009,0.214,0.014,0.42h0.012c0.161-0.292,0.349-0.498,0.561-0.619s0.476-0.182,0.791-0.182c0.464,0,0.803,0.115,1.018,0.346
		s0.322,0.611,0.322,1.143v2.816H187.37z"/>
	<path d="M190.737,140.494c-0.461,0-0.828-0.091-1.102-0.271c-0.273-0.182-0.449-0.438-0.527-0.771l0.707-0.102
		c0.047,0.195,0.15,0.346,0.311,0.451s0.37,0.158,0.631,0.158c0.7,0,1.051-0.41,1.051-1.23v-0.68H191.8
		c-0.133,0.271-0.315,0.475-0.547,0.611s-0.503,0.205-0.812,0.205c-0.519,0-0.899-0.172-1.143-0.516s-0.365-0.885-0.365-1.621
		c0-0.748,0.131-1.299,0.393-1.654s0.659-0.533,1.193-0.533c0.3,0,0.56,0.068,0.779,0.205s0.39,0.331,0.51,0.584h0.008
		c0-0.078,0.005-0.214,0.016-0.406c0.011-0.193,0.021-0.299,0.031-0.316h0.668c-0.016,0.141-0.023,0.432-0.023,0.875v3.23
		C192.507,139.9,191.917,140.494,190.737,140.494z M191.808,136.721c0-0.344-0.047-0.641-0.141-0.889
		c-0.094-0.249-0.226-0.439-0.396-0.57c-0.171-0.132-0.364-0.197-0.58-0.197c-0.359,0-0.621,0.13-0.785,0.391
		c-0.164,0.26-0.246,0.682-0.246,1.266c0,0.578,0.077,0.993,0.23,1.246c0.153,0.252,0.417,0.379,0.789,0.379
		c0.222,0,0.418-0.065,0.59-0.195c0.172-0.131,0.305-0.317,0.398-0.561C191.761,137.346,191.808,137.057,191.808,136.721z"/>
	<path d="M194.124,136.869c0,0.484,0.101,0.857,0.301,1.121c0.2,0.263,0.493,0.395,0.879,0.395c0.305,0,0.549-0.062,0.732-0.184
		c0.184-0.123,0.308-0.277,0.373-0.465l0.617,0.176c-0.253,0.666-0.827,1-1.723,1c-0.625,0-1.101-0.187-1.428-0.559
		c-0.327-0.373-0.49-0.926-0.49-1.66c0-0.698,0.163-1.233,0.49-1.605c0.327-0.373,0.794-0.559,1.4-0.559
		c1.242,0,1.863,0.748,1.863,2.246v0.094H194.124z M196.413,136.33c-0.039-0.445-0.152-0.771-0.34-0.975
		c-0.188-0.205-0.457-0.307-0.809-0.307c-0.341,0-0.611,0.113-0.811,0.342c-0.199,0.228-0.307,0.541-0.322,0.939H196.413z"/>
	<path d="M168.425,148.512c-0.425,0-0.743-0.111-0.957-0.336s-0.32-0.531-0.32-0.922c0-0.438,0.144-0.773,0.432-1.008
		s0.752-0.359,1.393-0.375l0.949-0.016v-0.23c0-0.344-0.073-0.59-0.219-0.738s-0.375-0.223-0.688-0.223
		c-0.315,0-0.544,0.053-0.688,0.16s-0.229,0.277-0.258,0.512l-0.734-0.066c0.12-0.76,0.685-1.141,1.695-1.141
		c0.531,0,0.931,0.121,1.199,0.365s0.402,0.596,0.402,1.057v1.82c0,0.209,0.027,0.365,0.082,0.471s0.159,0.158,0.312,0.158
		c0.067,0,0.145-0.01,0.23-0.027v0.438c-0.177,0.041-0.358,0.062-0.543,0.062c-0.261,0-0.45-0.068-0.568-0.205
		s-0.186-0.352-0.201-0.643h-0.023c-0.18,0.322-0.389,0.551-0.627,0.686S168.766,148.512,168.425,148.512z M168.585,147.984
		c0.258,0,0.487-0.059,0.688-0.176s0.358-0.277,0.475-0.482s0.174-0.414,0.174-0.631v-0.348l-0.77,0.016
		c-0.331,0.006-0.581,0.039-0.752,0.102s-0.302,0.158-0.393,0.289s-0.137,0.301-0.137,0.512c0,0.229,0.062,0.406,0.186,0.531
		S168.355,147.984,168.585,147.984z"/>
	<path d="M173.421,148.402c-0.231,0.062-0.469,0.094-0.711,0.094c-0.562,0-0.844-0.318-0.844-0.957v-2.82h-0.488v-0.512h0.516
		l0.207-0.945h0.469v0.945h0.781v0.512h-0.781v2.668c0,0.203,0.033,0.346,0.1,0.428s0.182,0.123,0.346,0.123
		c0.094,0,0.229-0.018,0.406-0.055V148.402z"/>
	<path d="M175.644,148.402c-0.231,0.062-0.469,0.094-0.711,0.094c-0.562,0-0.844-0.318-0.844-0.957v-2.82h-0.488v-0.512h0.516
		l0.207-0.945h0.469v0.945h0.781v0.512h-0.781v2.668c0,0.203,0.033,0.346,0.1,0.428s0.182,0.123,0.346,0.123
		c0.094,0,0.229-0.018,0.406-0.055V148.402z"/>
	<path d="M176.78,146.469c0,0.484,0.101,0.857,0.301,1.121s0.493,0.395,0.879,0.395c0.305,0,0.549-0.061,0.732-0.184
		s0.308-0.277,0.373-0.465l0.617,0.176c-0.253,0.666-0.827,1-1.723,1c-0.625,0-1.101-0.186-1.428-0.559s-0.49-0.926-0.49-1.66
		c0-0.697,0.163-1.232,0.49-1.605s0.794-0.559,1.4-0.559c1.242,0,1.863,0.748,1.863,2.246v0.094H176.78z M179.069,145.93
		c-0.039-0.445-0.152-0.77-0.34-0.975s-0.457-0.307-0.809-0.307c-0.341,0-0.611,0.113-0.811,0.342s-0.307,0.541-0.322,0.939H179.069
		z"/>
	<path d="M183.151,148.434v-2.68c0-0.408-0.056-0.691-0.168-0.848s-0.313-0.234-0.605-0.234c-0.3,0-0.536,0.115-0.711,0.344
		s-0.262,0.553-0.262,0.969v2.449h-0.699v-3.324c0-0.492-0.008-0.793-0.023-0.902h0.664c0.003,0.014,0.005,0.049,0.008,0.105
		s0.006,0.123,0.01,0.197s0.009,0.215,0.014,0.42h0.012c0.151-0.299,0.324-0.508,0.52-0.625s0.434-0.176,0.715-0.176
		c0.32,0,0.573,0.064,0.76,0.191s0.315,0.33,0.389,0.609h0.012c0.146-0.283,0.322-0.488,0.529-0.613s0.458-0.188,0.752-0.188
		c0.427,0,0.737,0.115,0.932,0.348s0.291,0.611,0.291,1.141v2.816h-0.695v-2.68c0-0.408-0.056-0.691-0.168-0.848
		s-0.313-0.234-0.605-0.234c-0.308,0-0.546,0.113-0.717,0.342s-0.256,0.551-0.256,0.971v2.449H183.151z"/>
	<path d="M190.929,146.301c0,1.475-0.519,2.211-1.555,2.211c-0.651,0-1.089-0.244-1.312-0.734h-0.02
		c0.011,0.021,0.016,0.242,0.016,0.664v1.652h-0.703v-5.023c0-0.436-0.008-0.723-0.023-0.863h0.68
		c0.003,0.01,0.007,0.047,0.012,0.111s0.011,0.162,0.018,0.295s0.01,0.225,0.01,0.273h0.016c0.125-0.26,0.29-0.451,0.496-0.572
		s0.477-0.182,0.812-0.182c0.521,0,0.91,0.174,1.168,0.523S190.929,145.553,190.929,146.301z M190.19,146.316
		c0-0.588-0.079-1.01-0.238-1.262s-0.411-0.379-0.758-0.379c-0.278,0-0.497,0.059-0.654,0.176s-0.277,0.301-0.359,0.549
		s-0.123,0.572-0.123,0.971c0,0.555,0.089,0.963,0.266,1.227s0.465,0.395,0.863,0.395c0.349,0,0.604-0.129,0.764-0.385
		S190.19,146.92,190.19,146.316z"/>
	<path d="M193.429,148.402c-0.231,0.062-0.469,0.094-0.711,0.094c-0.562,0-0.844-0.318-0.844-0.957v-2.82h-0.488v-0.512h0.516
		l0.207-0.945h0.469v0.945h0.781v0.512h-0.781v2.668c0,0.203,0.033,0.346,0.1,0.428s0.182,0.123,0.346,0.123
		c0.094,0,0.229-0.018,0.406-0.055V148.402z"/>
</g>
<g>
	<path d="M143.47,71.873c-0.242,0-0.419-0.051-0.529-0.15c-0.11-0.101-0.166-0.25-0.166-0.447l0.02-0.25h-0.023
		c-0.216,0.328-0.44,0.558-0.672,0.689c-0.231,0.131-0.512,0.197-0.84,0.197c-0.364,0-0.661-0.109-0.889-0.328
		s-0.342-0.498-0.342-0.836c0-0.482,0.173-0.847,0.518-1.094c0.345-0.248,0.896-0.377,1.65-0.387l0.906-0.012
		c0.05-0.256,0.074-0.421,0.074-0.496c0-0.237-0.069-0.412-0.207-0.525s-0.329-0.17-0.574-0.17c-0.31,0-0.544,0.055-0.703,0.166
		c-0.159,0.11-0.273,0.279-0.344,0.506l-0.695-0.113c0.117-0.383,0.321-0.661,0.611-0.834c0.29-0.174,0.681-0.26,1.17-0.26
		c0.445,0,0.798,0.104,1.057,0.312c0.259,0.208,0.389,0.488,0.389,0.84c0,0.166-0.024,0.371-0.074,0.613l-0.289,1.477
		c-0.028,0.125-0.043,0.239-0.043,0.344c0,0.189,0.105,0.285,0.316,0.285c0.07,0,0.148-0.01,0.234-0.027l-0.055,0.438
		C143.798,71.852,143.631,71.873,143.47,71.873z M143.009,69.74l-0.777,0.016c-0.31,0.008-0.554,0.035-0.73,0.084
		c-0.177,0.048-0.314,0.109-0.412,0.184s-0.175,0.168-0.23,0.281s-0.084,0.25-0.084,0.412c0,0.195,0.063,0.354,0.189,0.477
		c0.126,0.122,0.29,0.184,0.49,0.184c0.253,0,0.48-0.055,0.684-0.162c0.203-0.108,0.371-0.25,0.504-0.424
		c0.133-0.175,0.22-0.362,0.262-0.562L143.009,69.74z"/>
	<path d="M146.13,71.357c0.534,0,0.91-0.3,1.129-0.898l0.609,0.191c-0.315,0.841-0.899,1.262-1.754,1.262
		c-0.5,0-0.884-0.143-1.152-0.426c-0.269-0.284-0.402-0.683-0.402-1.195c0-0.521,0.095-1.006,0.283-1.453
		c0.188-0.448,0.438-0.778,0.75-0.99c0.312-0.213,0.693-0.318,1.146-0.318c0.44,0,0.788,0.11,1.045,0.332
		c0.257,0.221,0.397,0.524,0.424,0.91l-0.691,0.098c-0.016-0.253-0.094-0.447-0.234-0.584s-0.329-0.205-0.566-0.205
		c-0.328,0-0.594,0.088-0.797,0.264s-0.36,0.455-0.473,0.838s-0.168,0.76-0.168,1.133C145.278,71.01,145.562,71.357,146.13,71.357z"
		/>
	<path d="M150.13,71.357c0.534,0,0.91-0.3,1.129-0.898l0.609,0.191c-0.315,0.841-0.899,1.262-1.754,1.262
		c-0.5,0-0.884-0.143-1.152-0.426c-0.269-0.284-0.402-0.683-0.402-1.195c0-0.521,0.095-1.006,0.283-1.453
		c0.188-0.448,0.438-0.778,0.75-0.99c0.312-0.213,0.693-0.318,1.146-0.318c0.44,0,0.788,0.11,1.045,0.332
		c0.257,0.221,0.397,0.524,0.424,0.91l-0.691,0.098c-0.016-0.253-0.094-0.447-0.234-0.584s-0.329-0.205-0.566-0.205
		c-0.328,0-0.594,0.088-0.797,0.264s-0.36,0.455-0.473,0.838s-0.168,0.76-0.168,1.133C149.278,71.01,149.562,71.357,150.13,71.357z"
		/>
	<path d="M153.298,69.869c-0.016,0.091-0.027,0.238-0.035,0.441c0,0.346,0.087,0.611,0.26,0.797
		c0.173,0.185,0.435,0.277,0.783,0.277c0.253,0,0.481-0.062,0.688-0.188s0.366-0.296,0.48-0.512l0.539,0.246
		c-0.19,0.341-0.432,0.59-0.725,0.746s-0.647,0.234-1.064,0.234c-0.523,0-0.931-0.146-1.221-0.436
		c-0.29-0.291-0.436-0.699-0.436-1.225c0-0.523,0.093-0.993,0.277-1.408c0.185-0.416,0.445-0.738,0.781-0.969
		s0.714-0.346,1.133-0.346c0.534,0,0.949,0.134,1.246,0.402c0.297,0.268,0.445,0.646,0.445,1.137c0,0.273-0.031,0.54-0.094,0.801
		H153.298z M155.735,69.33l0.016-0.281c0-0.323-0.084-0.57-0.252-0.742s-0.409-0.258-0.725-0.258c-0.349,0-0.643,0.111-0.881,0.334
		s-0.405,0.538-0.502,0.947H155.735z"/>
	<path d="M158.911,71.912c-0.32,0-0.581-0.068-0.783-0.203c-0.202-0.136-0.345-0.326-0.428-0.57h-0.02
		c0,0.028-0.011,0.113-0.033,0.254s-0.155,0.841-0.4,2.102h-0.699l0.973-5.023c0.06-0.289,0.105-0.577,0.137-0.863h0.652
		c0,0.07-0.009,0.178-0.025,0.322s-0.03,0.246-0.041,0.307h0.016c0.19-0.248,0.391-0.428,0.602-0.539
		c0.211-0.112,0.472-0.168,0.781-0.168c0.409,0,0.728,0.123,0.955,0.369s0.342,0.584,0.342,1.014c0,0.528-0.08,1.041-0.24,1.537
		s-0.386,0.863-0.676,1.104C159.732,71.792,159.361,71.912,158.911,71.912z M159.438,68.072c-0.258,0-0.479,0.053-0.662,0.158
		s-0.339,0.264-0.467,0.477c-0.128,0.212-0.228,0.478-0.301,0.797c-0.073,0.318-0.109,0.604-0.109,0.857
		c0,0.325,0.083,0.578,0.248,0.76c0.165,0.181,0.396,0.271,0.689,0.271c0.323,0,0.578-0.099,0.766-0.295
		c0.188-0.197,0.335-0.51,0.441-0.938c0.106-0.429,0.16-0.803,0.16-1.123s-0.062-0.562-0.184-0.723
		C159.898,68.152,159.704,68.072,159.438,68.072z"/>
	<path d="M162.271,71.912c-0.222,0-0.396-0.066-0.521-0.199s-0.189-0.309-0.189-0.527c0-0.144,0.02-0.312,0.059-0.508l0.492-2.559
		h-0.488l0.102-0.512h0.496l0.41-0.945h0.469l-0.184,0.945h0.781l-0.102,0.512h-0.781l-0.488,2.52
		c-0.031,0.156-0.047,0.279-0.047,0.371c0,0.229,0.117,0.344,0.352,0.344c0.109,0,0.239-0.019,0.391-0.055l-0.074,0.52
		C162.688,71.881,162.463,71.912,162.271,71.912z"/>
</g>
<path fill="none" stroke="#6D6E71" stroke-width="1.059" stroke-miterlimit="10" d="M166.061,143.833"/>
<path fill="none" stroke="#6D6E71" stroke-width="1.059" stroke-miterlimit="10" d="M193.905,128.833"/>
<path fill="none" stroke="#6D6E71" stroke-width="1.059" stroke-miterlimit="10" d="M193.905,6.036"/>
<g>
	<g>
		<line fill="none" stroke="#00A651" stroke-width="2" stroke-miterlimit="10" x1="168.191" y1="15.155" x2="188.16" y2="15.155"/>
		<g>
			<path fill="#00A651" d="M191.781,15.155c-1.704,0.632-3.818,1.711-5.129,2.854l1.032-2.854l-1.032-2.853
				C187.963,13.444,190.077,14.523,191.781,15.155z"/>
		</g>
	</g>
</g>
<g>
	<path d="M238.947,34.431c-0.242,0-0.419-0.05-0.529-0.15s-0.166-0.25-0.166-0.447l0.02-0.25h-0.023
		c-0.216,0.328-0.44,0.558-0.672,0.689s-0.512,0.197-0.84,0.197c-0.364,0-0.661-0.109-0.889-0.328s-0.342-0.498-0.342-0.836
		c0-0.482,0.173-0.846,0.518-1.094s0.896-0.376,1.65-0.387l0.906-0.012c0.05-0.255,0.074-0.42,0.074-0.496
		c0-0.237-0.069-0.412-0.207-0.525s-0.329-0.17-0.574-0.17c-0.31,0-0.544,0.055-0.703,0.166s-0.273,0.279-0.344,0.506l-0.695-0.113
		c0.117-0.383,0.321-0.661,0.611-0.834s0.681-0.26,1.17-0.26c0.445,0,0.798,0.104,1.057,0.312s0.389,0.488,0.389,0.84
		c0,0.167-0.024,0.371-0.074,0.613l-0.289,1.477c-0.028,0.125-0.043,0.24-0.043,0.344c0,0.19,0.105,0.285,0.316,0.285
		c0.07,0,0.148-0.009,0.234-0.027l-0.055,0.438C239.275,34.41,239.108,34.431,238.947,34.431z M238.486,32.298l-0.777,0.016
		c-0.31,0.008-0.554,0.036-0.73,0.084s-0.314,0.109-0.412,0.184s-0.175,0.168-0.23,0.281s-0.084,0.25-0.084,0.412
		c0,0.195,0.063,0.354,0.189,0.477s0.29,0.184,0.49,0.184c0.253,0,0.48-0.054,0.684-0.162s0.371-0.25,0.504-0.424
		s0.22-0.362,0.262-0.562L238.486,32.298z"/>
	<path d="M241.607,33.916c0.534,0,0.91-0.299,1.129-0.898l0.609,0.191c-0.315,0.841-0.899,1.262-1.754,1.262
		c-0.5,0-0.884-0.142-1.152-0.426s-0.402-0.682-0.402-1.195c0-0.521,0.095-1.005,0.283-1.453s0.438-0.778,0.75-0.99
		s0.693-0.318,1.146-0.318c0.44,0,0.788,0.111,1.045,0.332s0.397,0.525,0.424,0.91l-0.691,0.098
		c-0.016-0.252-0.094-0.447-0.234-0.584s-0.329-0.205-0.566-0.205c-0.328,0-0.594,0.088-0.797,0.264s-0.36,0.455-0.473,0.838
		s-0.168,0.76-0.168,1.133C240.756,33.568,241.04,33.916,241.607,33.916z"/>
	<path d="M245.607,33.916c0.534,0,0.91-0.299,1.129-0.898l0.609,0.191c-0.315,0.841-0.899,1.262-1.754,1.262
		c-0.5,0-0.884-0.142-1.152-0.426s-0.402-0.682-0.402-1.195c0-0.521,0.095-1.005,0.283-1.453s0.438-0.778,0.75-0.99
		s0.693-0.318,1.146-0.318c0.44,0,0.788,0.111,1.045,0.332s0.397,0.525,0.424,0.91l-0.691,0.098
		c-0.016-0.252-0.094-0.447-0.234-0.584s-0.329-0.205-0.566-0.205c-0.328,0-0.594,0.088-0.797,0.264s-0.36,0.455-0.473,0.838
		s-0.168,0.76-0.168,1.133C244.756,33.568,245.04,33.916,245.607,33.916z"/>
	<path d="M248.775,32.427c-0.016,0.091-0.027,0.238-0.035,0.441c0,0.346,0.087,0.612,0.26,0.797s0.435,0.277,0.783,0.277
		c0.253,0,0.481-0.062,0.688-0.188s0.366-0.295,0.48-0.512l0.539,0.246c-0.19,0.341-0.432,0.59-0.725,0.746
		s-0.647,0.234-1.064,0.234c-0.523,0-0.931-0.145-1.221-0.436s-0.436-0.699-0.436-1.225c0-0.523,0.093-0.993,0.277-1.408
		s0.445-0.738,0.781-0.969s0.714-0.346,1.133-0.346c0.534,0,0.949,0.134,1.246,0.402s0.445,0.647,0.445,1.137
		c0,0.273-0.031,0.541-0.094,0.801H248.775z M251.213,31.888l0.016-0.281c0-0.323-0.084-0.57-0.252-0.742s-0.409-0.258-0.725-0.258
		c-0.349,0-0.643,0.111-0.881,0.334s-0.405,0.539-0.502,0.947H251.213z"/>
	<path d="M254.389,34.47c-0.32,0-0.581-0.068-0.783-0.203s-0.345-0.326-0.428-0.57h-0.02c0,0.029-0.011,0.113-0.033,0.254
		s-0.155,0.841-0.4,2.102h-0.699l0.973-5.023c0.06-0.289,0.105-0.577,0.137-0.863h0.652c0,0.07-0.009,0.178-0.025,0.322
		s-0.03,0.247-0.041,0.307h0.016c0.19-0.248,0.391-0.427,0.602-0.539s0.472-0.168,0.781-0.168c0.409,0,0.728,0.123,0.955,0.369
		s0.342,0.584,0.342,1.014c0,0.529-0.08,1.041-0.24,1.537s-0.386,0.864-0.676,1.104S254.839,34.47,254.389,34.47z M254.916,30.63
		c-0.258,0-0.479,0.053-0.662,0.158s-0.339,0.264-0.467,0.477s-0.228,0.478-0.301,0.797s-0.109,0.605-0.109,0.857
		c0,0.326,0.083,0.579,0.248,0.76s0.396,0.271,0.689,0.271c0.323,0,0.578-0.098,0.766-0.295s0.335-0.509,0.441-0.938
		s0.16-0.803,0.16-1.123s-0.062-0.561-0.184-0.723S255.182,30.63,254.916,30.63z"/>
	<path d="M257.748,34.47c-0.222,0-0.396-0.066-0.521-0.199s-0.189-0.309-0.189-0.527c0-0.143,0.02-0.312,0.059-0.508l0.492-2.559
		H257.1l0.102-0.512h0.496l0.41-0.945h0.469l-0.184,0.945h0.781l-0.102,0.512h-0.781l-0.488,2.52
		c-0.031,0.156-0.047,0.28-0.047,0.371c0,0.229,0.117,0.344,0.352,0.344c0.109,0,0.239-0.018,0.391-0.055l-0.074,0.52
		C258.166,34.439,257.94,34.47,257.748,34.47z"/>
</g>
<g>
	<path d="M110.184,8.199V5.52c0-0.409-0.056-0.691-0.168-0.848s-0.314-0.234-0.605-0.234c-0.299,0-0.537,0.115-0.711,0.344
		s-0.262,0.552-0.262,0.969v2.449h-0.699V4.875c0-0.492-0.008-0.793-0.023-0.902h0.664c0.002,0.013,0.005,0.048,0.008,0.105
		s0.006,0.123,0.01,0.197s0.008,0.214,0.014,0.42h0.012c0.151-0.299,0.324-0.508,0.52-0.625s0.434-0.176,0.715-0.176
		c0.32,0,0.574,0.064,0.76,0.191s0.316,0.331,0.389,0.609h0.012c0.146-0.284,0.322-0.488,0.529-0.613s0.458-0.188,0.752-0.188
		c0.427,0,0.738,0.116,0.932,0.348s0.291,0.612,0.291,1.141v2.816h-0.695V5.52c0-0.409-0.056-0.691-0.168-0.848
		s-0.314-0.234-0.605-0.234c-0.307,0-0.546,0.114-0.717,0.342s-0.256,0.551-0.256,0.971v2.449H110.184z"/>
	<path d="M119.781,7.031c0,0.398-0.15,0.706-0.451,0.922s-0.722,0.324-1.264,0.324c-0.526,0-0.932-0.086-1.217-0.26
		s-0.471-0.443-0.557-0.811l0.621-0.121c0.061,0.227,0.184,0.393,0.371,0.498s0.448,0.158,0.781,0.158
		c0.356,0,0.618-0.055,0.783-0.164s0.248-0.273,0.248-0.492c0-0.167-0.058-0.302-0.172-0.406s-0.3-0.19-0.555-0.258l-0.504-0.133
		c-0.403-0.104-0.69-0.207-0.861-0.307c-0.17-0.1-0.305-0.222-0.4-0.365s-0.145-0.319-0.145-0.527c0-0.385,0.137-0.679,0.412-0.881
		c0.274-0.202,0.675-0.303,1.201-0.303c0.466,0,0.837,0.082,1.111,0.246s0.448,0.427,0.521,0.789l-0.633,0.078
		c-0.039-0.188-0.144-0.332-0.314-0.432s-0.399-0.15-0.686-0.15c-0.317,0-0.552,0.048-0.703,0.145s-0.227,0.242-0.227,0.438
		c0,0.12,0.031,0.219,0.094,0.297s0.155,0.145,0.277,0.199s0.38,0.13,0.773,0.227c0.372,0.094,0.641,0.18,0.805,0.26
		s0.294,0.167,0.389,0.264s0.169,0.208,0.221,0.334S119.781,6.87,119.781,7.031z"/>
	<path d="M122.234,8.168c-0.231,0.062-0.469,0.094-0.711,0.094c-0.562,0-0.844-0.319-0.844-0.957v-2.82h-0.488V3.973h0.516
		l0.207-0.945h0.469v0.945h0.781v0.512h-0.781v2.668c0,0.203,0.033,0.346,0.1,0.428s0.182,0.123,0.346,0.123
		c0.094,0,0.229-0.018,0.406-0.055V8.168z"/>
	<path d="M123.371,6.234c0,0.484,0.101,0.858,0.301,1.121s0.493,0.395,0.879,0.395c0.305,0,0.549-0.061,0.732-0.184
		s0.308-0.277,0.373-0.465l0.617,0.176c-0.253,0.667-0.827,1-1.723,1c-0.625,0-1.101-0.186-1.428-0.559s-0.49-0.926-0.49-1.66
		c0-0.698,0.163-1.233,0.49-1.605s0.794-0.559,1.4-0.559c1.242,0,1.863,0.749,1.863,2.246v0.094H123.371z M125.66,5.695
		c-0.039-0.445-0.152-0.77-0.34-0.975s-0.457-0.307-0.809-0.307c-0.341,0-0.611,0.114-0.811,0.342s-0.307,0.541-0.322,0.939H125.66z
		"/>
	<path d="M130.855,6.066c0,1.474-0.519,2.211-1.555,2.211c-0.651,0-1.089-0.245-1.312-0.734h-0.02
		c0.011,0.021,0.016,0.242,0.016,0.664v1.652h-0.703V4.836c0-0.435-0.008-0.723-0.023-0.863h0.68
		c0.003,0.01,0.007,0.047,0.012,0.111s0.011,0.162,0.018,0.295s0.01,0.224,0.01,0.273h0.016c0.125-0.26,0.29-0.451,0.496-0.572
		s0.477-0.182,0.812-0.182c0.521,0,0.91,0.174,1.168,0.523S130.855,5.319,130.855,6.066z M130.117,6.082
		c0-0.588-0.079-1.009-0.238-1.262s-0.411-0.379-0.758-0.379c-0.278,0-0.497,0.059-0.654,0.176s-0.277,0.3-0.359,0.549
		s-0.123,0.572-0.123,0.971c0,0.555,0.089,0.963,0.266,1.227s0.465,0.395,0.863,0.395c0.349,0,0.604-0.128,0.764-0.385
		S130.117,6.686,130.117,6.082z"/>
	<path d="M134.902,7.031c0,0.398-0.15,0.706-0.451,0.922s-0.722,0.324-1.264,0.324c-0.526,0-0.932-0.086-1.217-0.26
		s-0.471-0.443-0.557-0.811l0.621-0.121c0.06,0.227,0.184,0.393,0.371,0.498s0.448,0.158,0.781,0.158
		c0.356,0,0.618-0.055,0.783-0.164s0.248-0.273,0.248-0.492c0-0.167-0.058-0.302-0.172-0.406s-0.3-0.19-0.555-0.258l-0.504-0.133
		c-0.403-0.104-0.69-0.207-0.861-0.307s-0.304-0.222-0.4-0.365s-0.145-0.319-0.145-0.527c0-0.385,0.138-0.679,0.412-0.881
		s0.675-0.303,1.201-0.303c0.466,0,0.837,0.082,1.111,0.246s0.448,0.427,0.521,0.789l-0.633,0.078
		c-0.039-0.188-0.144-0.332-0.314-0.432s-0.399-0.15-0.686-0.15c-0.317,0-0.552,0.048-0.703,0.145s-0.227,0.242-0.227,0.438
		c0,0.12,0.031,0.219,0.094,0.297s0.155,0.145,0.277,0.199s0.38,0.13,0.773,0.227c0.372,0.094,0.641,0.18,0.805,0.26
		s0.294,0.167,0.389,0.264s0.169,0.208,0.221,0.334S134.902,6.87,134.902,7.031z"/>
	<path d="M141.527,6.082c0,0.74-0.163,1.291-0.488,1.652s-0.798,0.543-1.418,0.543c-0.617,0-1.083-0.188-1.398-0.564
		s-0.473-0.92-0.473-1.631c0-1.458,0.632-2.188,1.895-2.188c0.646,0,1.121,0.178,1.426,0.533S141.527,5.334,141.527,6.082z
		 M140.789,6.082c0-0.583-0.087-1.007-0.26-1.271s-0.464-0.396-0.873-0.396c-0.411,0-0.709,0.135-0.893,0.404
		s-0.275,0.691-0.275,1.264c0,0.557,0.091,0.976,0.271,1.256s0.466,0.42,0.854,0.42c0.422,0,0.724-0.135,0.904-0.406
		S140.789,6.658,140.789,6.082z"/>
	<path d="M143.273,4.484v3.715h-0.703V4.484h-0.594V3.973h0.594V3.496c0-0.385,0.085-0.663,0.254-0.832s0.429-0.254,0.777-0.254
		c0.195,0,0.36,0.016,0.496,0.047v0.535c-0.117-0.021-0.222-0.031-0.312-0.031c-0.18,0-0.31,0.045-0.391,0.137
		s-0.121,0.256-0.121,0.496v0.379h0.824v0.512H143.273z"/>
	<path d="M151.645,8.199V4.527c0-0.406,0.012-0.797,0.035-1.172c-0.128,0.466-0.242,0.831-0.344,1.094l-1.422,3.75h-0.523
		l-1.441-3.75l-0.219-0.664l-0.129-0.43l0.012,0.434l0.016,0.738v3.672h-0.664V2.695h0.98l1.465,3.816
		c0.052,0.154,0.103,0.318,0.15,0.494s0.08,0.303,0.096,0.381c0.021-0.104,0.064-0.262,0.131-0.475s0.111-0.346,0.135-0.4
		l1.438-3.816h0.957v5.504H151.645z"/>
	<path d="M158.367,5.391c0,0.568-0.11,1.064-0.332,1.49s-0.535,0.752-0.941,0.979s-0.875,0.34-1.406,0.34h-2.059V2.695h1.82
		c0.933,0,1.651,0.234,2.158,0.701S158.367,4.529,158.367,5.391z M157.617,5.391c0-0.682-0.187-1.203-0.561-1.561
		s-0.915-0.537-1.623-0.537h-1.059v4.309h1.227c0.403,0,0.759-0.088,1.064-0.266s0.541-0.432,0.705-0.766
		S157.617,5.844,157.617,5.391z"/>
</g>
<g>
	<path d="M238.947,111.455c-0.242,0-0.419-0.049-0.529-0.15c-0.11-0.1-0.166-0.248-0.166-0.447l0.02-0.25h-0.023
		c-0.216,0.328-0.44,0.559-0.672,0.689c-0.231,0.133-0.512,0.197-0.84,0.197c-0.364,0-0.661-0.109-0.889-0.328
		s-0.342-0.496-0.342-0.836c0-0.48,0.173-0.846,0.518-1.094c0.345-0.246,0.896-0.375,1.65-0.387l0.906-0.012
		c0.05-0.254,0.074-0.42,0.074-0.496c0-0.236-0.069-0.412-0.207-0.525s-0.329-0.17-0.574-0.17c-0.31,0-0.544,0.057-0.703,0.166
		c-0.159,0.111-0.273,0.279-0.344,0.506l-0.695-0.113c0.117-0.383,0.321-0.66,0.611-0.834c0.29-0.172,0.681-0.26,1.17-0.26
		c0.445,0,0.798,0.105,1.057,0.312c0.259,0.209,0.389,0.488,0.389,0.84c0,0.168-0.024,0.371-0.074,0.613l-0.289,1.477
		c-0.028,0.125-0.043,0.24-0.043,0.344c0,0.191,0.105,0.285,0.316,0.285c0.07,0,0.148-0.008,0.234-0.027l-0.055,0.438
		C239.275,111.436,239.108,111.455,238.947,111.455z M238.486,109.322l-0.777,0.016c-0.31,0.008-0.554,0.037-0.73,0.084
		c-0.177,0.049-0.314,0.109-0.412,0.184s-0.175,0.168-0.23,0.281s-0.084,0.252-0.084,0.412c0,0.195,0.063,0.355,0.189,0.477
		c0.126,0.123,0.29,0.184,0.49,0.184c0.253,0,0.48-0.053,0.684-0.162c0.203-0.107,0.371-0.248,0.504-0.424
		c0.133-0.174,0.22-0.361,0.262-0.562L238.486,109.322z"/>
	<path d="M241.607,110.939c0.534,0,0.91-0.299,1.129-0.898l0.609,0.191c-0.315,0.842-0.899,1.262-1.754,1.262
		c-0.5,0-0.884-0.141-1.152-0.426c-0.269-0.283-0.402-0.682-0.402-1.195c0-0.52,0.095-1.004,0.283-1.453
		c0.188-0.447,0.438-0.777,0.75-0.99c0.312-0.211,0.693-0.318,1.146-0.318c0.44,0,0.788,0.111,1.045,0.332
		c0.257,0.223,0.397,0.525,0.424,0.91l-0.691,0.098c-0.016-0.252-0.094-0.447-0.234-0.584s-0.329-0.205-0.566-0.205
		c-0.328,0-0.594,0.088-0.797,0.264s-0.36,0.455-0.473,0.838s-0.168,0.762-0.168,1.133
		C240.756,110.592,241.04,110.939,241.607,110.939z"/>
	<path d="M245.607,110.939c0.534,0,0.91-0.299,1.129-0.898l0.609,0.191c-0.315,0.842-0.899,1.262-1.754,1.262
		c-0.5,0-0.884-0.141-1.152-0.426c-0.269-0.283-0.402-0.682-0.402-1.195c0-0.52,0.095-1.004,0.283-1.453
		c0.188-0.447,0.438-0.777,0.75-0.99c0.312-0.211,0.693-0.318,1.146-0.318c0.44,0,0.788,0.111,1.045,0.332
		c0.257,0.223,0.397,0.525,0.424,0.91l-0.691,0.098c-0.016-0.252-0.094-0.447-0.234-0.584s-0.329-0.205-0.566-0.205
		c-0.328,0-0.594,0.088-0.797,0.264s-0.36,0.455-0.473,0.838s-0.168,0.762-0.168,1.133
		C244.756,110.592,245.04,110.939,245.607,110.939z"/>
	<path d="M248.775,109.451c-0.016,0.092-0.027,0.238-0.035,0.441c0,0.348,0.087,0.613,0.26,0.797
		c0.173,0.186,0.435,0.277,0.783,0.277c0.253,0,0.481-0.062,0.688-0.188s0.366-0.295,0.48-0.512l0.539,0.246
		c-0.19,0.342-0.432,0.59-0.725,0.746s-0.647,0.234-1.064,0.234c-0.523,0-0.931-0.145-1.221-0.436
		c-0.29-0.289-0.436-0.697-0.436-1.225c0-0.523,0.093-0.992,0.277-1.408c0.185-0.414,0.445-0.738,0.781-0.969
		s0.714-0.346,1.133-0.346c0.534,0,0.949,0.135,1.246,0.402c0.297,0.27,0.445,0.648,0.445,1.137c0,0.273-0.031,0.541-0.094,0.801
		H248.775z M251.213,108.912l0.016-0.281c0-0.322-0.084-0.57-0.252-0.742s-0.409-0.258-0.725-0.258
		c-0.349,0-0.643,0.111-0.881,0.334s-0.405,0.539-0.502,0.947H251.213z"/>
	<path d="M254.389,111.494c-0.32,0-0.581-0.066-0.783-0.203c-0.202-0.135-0.345-0.324-0.428-0.57h-0.02
		c0,0.029-0.011,0.113-0.033,0.254s-0.155,0.842-0.4,2.102h-0.699l0.973-5.023c0.06-0.289,0.105-0.576,0.137-0.863h0.652
		c0,0.07-0.009,0.178-0.025,0.322s-0.03,0.248-0.041,0.307h0.016c0.19-0.246,0.391-0.426,0.602-0.539
		c0.211-0.111,0.472-0.168,0.781-0.168c0.409,0,0.728,0.123,0.955,0.369s0.342,0.584,0.342,1.014c0,0.529-0.08,1.041-0.24,1.537
		s-0.386,0.865-0.676,1.104C255.21,111.375,254.839,111.494,254.389,111.494z M254.916,107.654c-0.258,0-0.479,0.053-0.662,0.158
		s-0.339,0.266-0.467,0.477c-0.128,0.213-0.228,0.479-0.301,0.797c-0.073,0.32-0.109,0.605-0.109,0.857
		c0,0.326,0.083,0.58,0.248,0.76c0.165,0.182,0.396,0.271,0.689,0.271c0.323,0,0.578-0.098,0.766-0.295
		c0.188-0.195,0.335-0.508,0.441-0.938c0.106-0.428,0.16-0.803,0.16-1.123s-0.062-0.561-0.184-0.723
		C255.376,107.736,255.182,107.654,254.916,107.654z"/>
	<path d="M257.748,111.494c-0.222,0-0.396-0.066-0.521-0.199s-0.189-0.309-0.189-0.527c0-0.143,0.02-0.312,0.059-0.508l0.492-2.559
		H257.1l0.102-0.512h0.496l0.41-0.945h0.469l-0.184,0.945h0.781l-0.102,0.512h-0.781l-0.488,2.52
		c-0.031,0.156-0.047,0.281-0.047,0.371c0,0.23,0.117,0.344,0.352,0.344c0.109,0,0.239-0.018,0.391-0.055l-0.074,0.52
		C258.166,111.463,257.94,111.494,257.748,111.494z"/>
</g>
<path fill="none" stroke="#6D6E71" stroke-width="1.059" stroke-miterlimit="10" d="M262.255,127.167"/>
<path fill="none" stroke="#6D6E71" stroke-width="1.059" stroke-miterlimit="10" d="M290.293,131.5"/>
<g>
	<path d="M207.184,8.199V5.52c0-0.409-0.056-0.691-0.168-0.848c-0.111-0.156-0.313-0.234-0.605-0.234
		c-0.299,0-0.536,0.115-0.711,0.344c-0.174,0.229-0.262,0.552-0.262,0.969v2.449h-0.699V4.875c0-0.492-0.008-0.793-0.023-0.902
		h0.664c0.003,0.013,0.006,0.048,0.008,0.105c0.003,0.057,0.006,0.123,0.01,0.197s0.009,0.214,0.014,0.42h0.012
		c0.151-0.299,0.324-0.508,0.52-0.625s0.434-0.176,0.715-0.176c0.32,0,0.574,0.064,0.76,0.191c0.187,0.127,0.316,0.331,0.389,0.609
		h0.012c0.146-0.284,0.322-0.488,0.529-0.613s0.458-0.188,0.752-0.188c0.428,0,0.738,0.116,0.932,0.348
		c0.194,0.232,0.291,0.612,0.291,1.141v2.816h-0.695V5.52c0-0.409-0.056-0.691-0.168-0.848c-0.111-0.156-0.313-0.234-0.605-0.234
		c-0.307,0-0.546,0.114-0.717,0.342c-0.17,0.228-0.256,0.551-0.256,0.971v2.449H207.184z"/>
	<path d="M216.781,7.031c0,0.398-0.15,0.706-0.451,0.922s-0.721,0.324-1.264,0.324c-0.525,0-0.932-0.086-1.217-0.26
		s-0.471-0.443-0.557-0.811l0.621-0.121c0.061,0.227,0.184,0.393,0.371,0.498s0.449,0.158,0.781,0.158
		c0.357,0,0.619-0.055,0.783-0.164c0.166-0.109,0.248-0.273,0.248-0.492c0-0.167-0.057-0.302-0.172-0.406
		c-0.113-0.104-0.299-0.19-0.555-0.258l-0.504-0.133c-0.402-0.104-0.689-0.207-0.861-0.307c-0.17-0.1-0.305-0.222-0.4-0.365
		s-0.145-0.319-0.145-0.527c0-0.385,0.137-0.679,0.412-0.881s0.676-0.303,1.201-0.303c0.467,0,0.838,0.082,1.111,0.246
		c0.275,0.164,0.449,0.427,0.521,0.789l-0.633,0.078c-0.039-0.188-0.143-0.332-0.314-0.432c-0.17-0.1-0.398-0.15-0.686-0.15
		c-0.316,0-0.551,0.048-0.703,0.145c-0.15,0.096-0.227,0.242-0.227,0.438c0,0.12,0.031,0.219,0.094,0.297s0.156,0.145,0.277,0.199
		c0.123,0.055,0.381,0.13,0.773,0.227c0.373,0.094,0.641,0.18,0.805,0.26s0.295,0.167,0.389,0.264
		c0.096,0.096,0.17,0.208,0.221,0.334C216.756,6.726,216.781,6.87,216.781,7.031z"/>
	<path d="M219.234,8.168c-0.23,0.062-0.469,0.094-0.711,0.094c-0.562,0-0.844-0.319-0.844-0.957v-2.82h-0.488V3.973h0.516
		l0.207-0.945h0.469v0.945h0.781v0.512h-0.781v2.668c0,0.203,0.033,0.346,0.1,0.428s0.182,0.123,0.346,0.123
		c0.094,0,0.23-0.018,0.406-0.055V8.168z"/>
	<path d="M220.371,6.234c0,0.484,0.102,0.858,0.301,1.121c0.201,0.263,0.494,0.395,0.879,0.395c0.305,0,0.549-0.061,0.732-0.184
		s0.309-0.277,0.373-0.465l0.617,0.176c-0.252,0.667-0.826,1-1.723,1c-0.625,0-1.1-0.186-1.428-0.559
		c-0.326-0.373-0.49-0.926-0.49-1.66c0-0.698,0.164-1.233,0.49-1.605c0.328-0.373,0.795-0.559,1.4-0.559
		c1.242,0,1.863,0.749,1.863,2.246v0.094H220.371z M222.66,5.695c-0.039-0.445-0.152-0.77-0.34-0.975s-0.457-0.307-0.809-0.307
		c-0.34,0-0.611,0.114-0.811,0.342s-0.307,0.541-0.322,0.939H222.66z"/>
	<path d="M227.855,6.066c0,1.474-0.518,2.211-1.555,2.211c-0.65,0-1.088-0.245-1.312-0.734h-0.02
		c0.012,0.021,0.016,0.242,0.016,0.664v1.652h-0.703V4.836c0-0.435-0.008-0.723-0.023-0.863h0.68
		c0.004,0.01,0.008,0.047,0.012,0.111c0.006,0.064,0.012,0.162,0.018,0.295c0.008,0.133,0.01,0.224,0.01,0.273h0.016
		c0.125-0.26,0.291-0.451,0.496-0.572c0.207-0.121,0.477-0.182,0.812-0.182c0.521,0,0.91,0.174,1.168,0.523
		S227.855,5.319,227.855,6.066z M227.117,6.082c0-0.588-0.078-1.009-0.238-1.262c-0.158-0.252-0.41-0.379-0.758-0.379
		c-0.277,0-0.496,0.059-0.654,0.176c-0.156,0.117-0.277,0.3-0.359,0.549s-0.123,0.572-0.123,0.971c0,0.555,0.09,0.963,0.266,1.227
		c0.178,0.263,0.465,0.395,0.863,0.395c0.35,0,0.604-0.128,0.764-0.385S227.117,6.686,227.117,6.082z"/>
	<path d="M231.902,7.031c0,0.398-0.15,0.706-0.451,0.922s-0.721,0.324-1.264,0.324c-0.525,0-0.932-0.086-1.217-0.26
		s-0.471-0.443-0.557-0.811l0.621-0.121c0.061,0.227,0.184,0.393,0.371,0.498s0.449,0.158,0.781,0.158
		c0.357,0,0.619-0.055,0.783-0.164c0.166-0.109,0.248-0.273,0.248-0.492c0-0.167-0.057-0.302-0.172-0.406
		c-0.113-0.104-0.299-0.19-0.555-0.258l-0.504-0.133c-0.402-0.104-0.689-0.207-0.861-0.307c-0.17-0.1-0.303-0.222-0.4-0.365
		c-0.096-0.143-0.145-0.319-0.145-0.527c0-0.385,0.139-0.679,0.412-0.881c0.275-0.202,0.676-0.303,1.201-0.303
		c0.467,0,0.838,0.082,1.111,0.246c0.275,0.164,0.449,0.427,0.521,0.789l-0.633,0.078c-0.039-0.188-0.143-0.332-0.314-0.432
		c-0.17-0.1-0.398-0.15-0.686-0.15c-0.316,0-0.551,0.048-0.703,0.145c-0.15,0.096-0.227,0.242-0.227,0.438
		c0,0.12,0.031,0.219,0.094,0.297s0.156,0.145,0.277,0.199c0.123,0.055,0.381,0.13,0.773,0.227c0.373,0.094,0.641,0.18,0.805,0.26
		s0.295,0.167,0.389,0.264c0.096,0.096,0.17,0.208,0.221,0.334C231.877,6.726,231.902,6.87,231.902,7.031z"/>
	<path d="M238.527,6.082c0,0.74-0.162,1.291-0.488,1.652c-0.324,0.362-0.797,0.543-1.418,0.543c-0.617,0-1.082-0.188-1.398-0.564
		c-0.314-0.376-0.473-0.92-0.473-1.631c0-1.458,0.633-2.188,1.895-2.188c0.646,0,1.121,0.178,1.426,0.533
		S238.527,5.334,238.527,6.082z M237.789,6.082c0-0.583-0.086-1.007-0.26-1.271c-0.172-0.264-0.463-0.396-0.873-0.396
		s-0.709,0.135-0.893,0.404s-0.275,0.691-0.275,1.264c0,0.557,0.092,0.976,0.271,1.256c0.182,0.28,0.467,0.42,0.854,0.42
		c0.422,0,0.725-0.135,0.904-0.406C237.699,7.081,237.789,6.658,237.789,6.082z"/>
	<path d="M240.273,4.484v3.715h-0.703V4.484h-0.594V3.973h0.594V3.496c0-0.385,0.086-0.663,0.254-0.832
		c0.17-0.169,0.43-0.254,0.777-0.254c0.195,0,0.361,0.016,0.496,0.047v0.535c-0.117-0.021-0.221-0.031-0.312-0.031
		c-0.18,0-0.309,0.045-0.391,0.137c-0.08,0.091-0.121,0.256-0.121,0.496v0.379h0.824v0.512H240.273z"/>
	<path d="M248.645,8.199V4.527c0-0.406,0.012-0.797,0.035-1.172c-0.127,0.466-0.242,0.831-0.344,1.094l-1.422,3.75h-0.523
		l-1.441-3.75l-0.219-0.664l-0.129-0.43l0.012,0.434l0.016,0.738v3.672h-0.664V2.695h0.98l1.465,3.816
		c0.053,0.154,0.104,0.318,0.15,0.494c0.049,0.176,0.08,0.303,0.096,0.381c0.021-0.104,0.064-0.262,0.131-0.475
		s0.111-0.346,0.135-0.4l1.438-3.816h0.957v5.504H248.645z"/>
	<path d="M255.367,5.391c0,0.568-0.109,1.064-0.332,1.49c-0.221,0.426-0.535,0.752-0.941,0.979s-0.875,0.34-1.406,0.34h-2.059V2.695
		h1.82c0.934,0,1.652,0.234,2.158,0.701C255.115,3.864,255.367,4.529,255.367,5.391z M254.617,5.391
		c0-0.682-0.186-1.203-0.561-1.561c-0.373-0.358-0.914-0.537-1.623-0.537h-1.059v4.309h1.227c0.404,0,0.76-0.088,1.064-0.266
		c0.307-0.177,0.541-0.432,0.705-0.766S254.617,5.844,254.617,5.391z"/>
</g>
<g>
	<path d="M303.684,8.199V5.52c0-0.409-0.056-0.691-0.168-0.848c-0.111-0.156-0.313-0.234-0.605-0.234
		c-0.299,0-0.536,0.115-0.711,0.344c-0.174,0.229-0.262,0.552-0.262,0.969v2.449h-0.699V4.875c0-0.492-0.008-0.793-0.023-0.902
		h0.664c0.003,0.013,0.006,0.048,0.008,0.105c0.003,0.057,0.006,0.123,0.01,0.197s0.009,0.214,0.014,0.42h0.012
		c0.151-0.299,0.324-0.508,0.52-0.625s0.434-0.176,0.715-0.176c0.32,0,0.574,0.064,0.76,0.191c0.187,0.127,0.316,0.331,0.389,0.609
		h0.012c0.146-0.284,0.322-0.488,0.529-0.613s0.458-0.188,0.752-0.188c0.428,0,0.738,0.116,0.932,0.348
		c0.194,0.232,0.291,0.612,0.291,1.141v2.816h-0.695V5.52c0-0.409-0.056-0.691-0.168-0.848c-0.111-0.156-0.313-0.234-0.605-0.234
		c-0.307,0-0.546,0.114-0.717,0.342c-0.17,0.228-0.256,0.551-0.256,0.971v2.449H303.684z"/>
	<path d="M313.281,7.031c0,0.398-0.15,0.706-0.451,0.922s-0.721,0.324-1.264,0.324c-0.525,0-0.932-0.086-1.217-0.26
		s-0.471-0.443-0.557-0.811l0.621-0.121c0.061,0.227,0.184,0.393,0.371,0.498s0.449,0.158,0.781,0.158
		c0.357,0,0.619-0.055,0.783-0.164c0.166-0.109,0.248-0.273,0.248-0.492c0-0.167-0.057-0.302-0.172-0.406
		c-0.113-0.104-0.299-0.19-0.555-0.258l-0.504-0.133c-0.402-0.104-0.689-0.207-0.861-0.307c-0.17-0.1-0.305-0.222-0.4-0.365
		s-0.145-0.319-0.145-0.527c0-0.385,0.137-0.679,0.412-0.881s0.676-0.303,1.201-0.303c0.467,0,0.838,0.082,1.111,0.246
		c0.275,0.164,0.449,0.427,0.521,0.789l-0.633,0.078c-0.039-0.188-0.143-0.332-0.314-0.432c-0.17-0.1-0.398-0.15-0.686-0.15
		c-0.316,0-0.551,0.048-0.703,0.145c-0.15,0.096-0.227,0.242-0.227,0.438c0,0.12,0.031,0.219,0.094,0.297s0.156,0.145,0.277,0.199
		c0.123,0.055,0.381,0.13,0.773,0.227c0.373,0.094,0.641,0.18,0.805,0.26s0.295,0.167,0.389,0.264
		c0.096,0.096,0.17,0.208,0.221,0.334C313.256,6.726,313.281,6.87,313.281,7.031z"/>
	<path d="M315.734,8.168c-0.23,0.062-0.469,0.094-0.711,0.094c-0.562,0-0.844-0.319-0.844-0.957v-2.82h-0.488V3.973h0.516
		l0.207-0.945h0.469v0.945h0.781v0.512h-0.781v2.668c0,0.203,0.033,0.346,0.1,0.428s0.182,0.123,0.346,0.123
		c0.094,0,0.23-0.018,0.406-0.055V8.168z"/>
	<path d="M316.871,6.234c0,0.484,0.102,0.858,0.301,1.121c0.201,0.263,0.494,0.395,0.879,0.395c0.305,0,0.549-0.061,0.732-0.184
		s0.309-0.277,0.373-0.465l0.617,0.176c-0.252,0.667-0.826,1-1.723,1c-0.625,0-1.1-0.186-1.428-0.559
		c-0.326-0.373-0.49-0.926-0.49-1.66c0-0.698,0.164-1.233,0.49-1.605c0.328-0.373,0.795-0.559,1.4-0.559
		c1.242,0,1.863,0.749,1.863,2.246v0.094H316.871z M319.16,5.695c-0.039-0.445-0.152-0.77-0.34-0.975s-0.457-0.307-0.809-0.307
		c-0.34,0-0.611,0.114-0.811,0.342s-0.307,0.541-0.322,0.939H319.16z"/>
	<path d="M324.355,6.066c0,1.474-0.518,2.211-1.555,2.211c-0.65,0-1.088-0.245-1.312-0.734h-0.02
		c0.012,0.021,0.016,0.242,0.016,0.664v1.652h-0.703V4.836c0-0.435-0.008-0.723-0.023-0.863h0.68
		c0.004,0.01,0.008,0.047,0.012,0.111c0.006,0.064,0.012,0.162,0.018,0.295c0.008,0.133,0.01,0.224,0.01,0.273h0.016
		c0.125-0.26,0.291-0.451,0.496-0.572c0.207-0.121,0.477-0.182,0.812-0.182c0.521,0,0.91,0.174,1.168,0.523
		S324.355,5.319,324.355,6.066z M323.617,6.082c0-0.588-0.078-1.009-0.238-1.262c-0.158-0.252-0.41-0.379-0.758-0.379
		c-0.277,0-0.496,0.059-0.654,0.176c-0.156,0.117-0.277,0.3-0.359,0.549s-0.123,0.572-0.123,0.971c0,0.555,0.09,0.963,0.266,1.227
		c0.178,0.263,0.465,0.395,0.863,0.395c0.35,0,0.604-0.128,0.764-0.385S323.617,6.686,323.617,6.082z"/>
	<path d="M328.402,7.031c0,0.398-0.15,0.706-0.451,0.922s-0.721,0.324-1.264,0.324c-0.525,0-0.932-0.086-1.217-0.26
		S325,7.574,324.914,7.207l0.621-0.121c0.061,0.227,0.184,0.393,0.371,0.498s0.449,0.158,0.781,0.158
		c0.357,0,0.619-0.055,0.783-0.164c0.166-0.109,0.248-0.273,0.248-0.492c0-0.167-0.057-0.302-0.172-0.406
		c-0.113-0.104-0.299-0.19-0.555-0.258l-0.504-0.133c-0.402-0.104-0.689-0.207-0.861-0.307c-0.17-0.1-0.303-0.222-0.4-0.365
		c-0.096-0.143-0.145-0.319-0.145-0.527c0-0.385,0.139-0.679,0.412-0.881c0.275-0.202,0.676-0.303,1.201-0.303
		c0.467,0,0.838,0.082,1.111,0.246c0.275,0.164,0.449,0.427,0.521,0.789l-0.633,0.078c-0.039-0.188-0.143-0.332-0.314-0.432
		c-0.17-0.1-0.398-0.15-0.686-0.15c-0.316,0-0.551,0.048-0.703,0.145c-0.15,0.096-0.227,0.242-0.227,0.438
		c0,0.12,0.031,0.219,0.094,0.297s0.156,0.145,0.277,0.199c0.123,0.055,0.381,0.13,0.773,0.227c0.373,0.094,0.641,0.18,0.805,0.26
		s0.295,0.167,0.389,0.264c0.096,0.096,0.17,0.208,0.221,0.334C328.377,6.726,328.402,6.87,328.402,7.031z"/>
	<path d="M335.027,6.082c0,0.74-0.162,1.291-0.488,1.652c-0.324,0.362-0.797,0.543-1.418,0.543c-0.617,0-1.082-0.188-1.398-0.564
		c-0.314-0.376-0.473-0.92-0.473-1.631c0-1.458,0.633-2.188,1.895-2.188c0.646,0,1.121,0.178,1.426,0.533
		S335.027,5.334,335.027,6.082z M334.289,6.082c0-0.583-0.086-1.007-0.26-1.271c-0.172-0.264-0.463-0.396-0.873-0.396
		s-0.709,0.135-0.893,0.404s-0.275,0.691-0.275,1.264c0,0.557,0.092,0.976,0.271,1.256c0.182,0.28,0.467,0.42,0.854,0.42
		c0.422,0,0.725-0.135,0.904-0.406C334.199,7.081,334.289,6.658,334.289,6.082z"/>
	<path d="M336.773,4.484v3.715h-0.703V4.484h-0.594V3.973h0.594V3.496c0-0.385,0.086-0.663,0.254-0.832
		c0.17-0.169,0.43-0.254,0.777-0.254c0.195,0,0.361,0.016,0.496,0.047v0.535c-0.117-0.021-0.221-0.031-0.312-0.031
		c-0.18,0-0.309,0.045-0.391,0.137c-0.08,0.091-0.121,0.256-0.121,0.496v0.379h0.824v0.512H336.773z"/>
	<path d="M345.145,8.199V4.527c0-0.406,0.012-0.797,0.035-1.172c-0.127,0.466-0.242,0.831-0.344,1.094l-1.422,3.75h-0.523
		l-1.441-3.75l-0.219-0.664l-0.129-0.43l0.012,0.434l0.016,0.738v3.672h-0.664V2.695h0.98l1.465,3.816
		c0.053,0.154,0.104,0.318,0.15,0.494c0.049,0.176,0.08,0.303,0.096,0.381c0.021-0.104,0.064-0.262,0.131-0.475
		s0.111-0.346,0.135-0.4l1.438-3.816h0.957v5.504H345.145z"/>
	<path d="M351.867,5.391c0,0.568-0.109,1.064-0.332,1.49c-0.221,0.426-0.535,0.752-0.941,0.979s-0.875,0.34-1.406,0.34h-2.059V2.695
		h1.82c0.934,0,1.652,0.234,2.158,0.701C351.615,3.864,351.867,4.529,351.867,5.391z M351.117,5.391
		c0-0.682-0.186-1.203-0.561-1.561c-0.373-0.358-0.914-0.537-1.623-0.537h-1.059v4.309h1.227c0.404,0,0.76-0.088,1.064-0.266
		c0.307-0.177,0.541-0.432,0.705-0.766S351.117,5.844,351.117,5.391z"/>
</g>
<g>
	<path d="M258.897,136.576c0,0.484,0.101,0.858,0.301,1.121c0.2,0.264,0.493,0.395,0.879,0.395c0.305,0,0.549-0.061,0.732-0.184
		c0.184-0.122,0.308-0.277,0.373-0.465l0.617,0.176c-0.253,0.667-0.827,1-1.723,1c-0.625,0-1.101-0.186-1.428-0.559
		c-0.327-0.372-0.49-0.926-0.49-1.66c0-0.697,0.163-1.232,0.49-1.605c0.327-0.372,0.794-0.559,1.4-0.559
		c1.242,0,1.863,0.749,1.863,2.246v0.094H258.897z M261.187,136.037c-0.039-0.445-0.152-0.77-0.34-0.975
		c-0.188-0.204-0.457-0.307-0.809-0.307c-0.341,0-0.611,0.114-0.811,0.342c-0.199,0.229-0.307,0.541-0.322,0.939H261.187z"/>
	<path d="M265.397,138.541l-1.137-1.734l-1.145,1.734h-0.758l1.504-2.172l-1.434-2.055h0.777l1.055,1.645l1.047-1.645h0.785
		l-1.434,2.047l1.523,2.18H265.397z"/>
	<path d="M267.343,136.408c0,0.562,0.089,0.979,0.266,1.25c0.177,0.271,0.444,0.406,0.801,0.406c0.25,0,0.459-0.067,0.627-0.203
		c0.168-0.135,0.271-0.344,0.311-0.625l0.711,0.047c-0.055,0.406-0.228,0.73-0.52,0.973s-0.661,0.363-1.109,0.363
		c-0.591,0-1.042-0.187-1.354-0.561c-0.312-0.373-0.467-0.918-0.467-1.635c0-0.711,0.156-1.253,0.469-1.627
		c0.312-0.373,0.761-0.561,1.344-0.561c0.433,0,0.791,0.112,1.076,0.336c0.285,0.225,0.464,0.533,0.537,0.926l-0.723,0.055
		c-0.036-0.234-0.129-0.42-0.277-0.559c-0.148-0.138-0.359-0.207-0.633-0.207c-0.372,0-0.642,0.124-0.809,0.371
		C267.426,135.406,267.343,135.822,267.343,136.408z"/>
	<path d="M271.507,135.037c0.151-0.275,0.333-0.479,0.545-0.607s0.481-0.193,0.807-0.193c0.458,0,0.796,0.114,1.014,0.342
		c0.218,0.229,0.326,0.61,0.326,1.146v2.816h-0.707v-2.68c0-0.297-0.027-0.518-0.082-0.662s-0.145-0.25-0.27-0.318
		c-0.125-0.067-0.298-0.102-0.52-0.102c-0.331,0-0.596,0.115-0.795,0.344c-0.199,0.229-0.299,0.538-0.299,0.926v2.492h-0.703v-5.797
		h0.703v1.508c0,0.159-0.005,0.323-0.014,0.492c-0.009,0.17-0.015,0.268-0.018,0.293H271.507z"/>
	<path d="M276.335,138.619c-0.425,0-0.743-0.111-0.957-0.336c-0.214-0.224-0.32-0.531-0.32-0.922c0-0.438,0.144-0.773,0.432-1.008
		s0.752-0.359,1.393-0.375l0.949-0.016v-0.23c0-0.344-0.073-0.59-0.219-0.738s-0.375-0.223-0.688-0.223
		c-0.315,0-0.544,0.054-0.688,0.16c-0.144,0.107-0.229,0.277-0.258,0.512l-0.734-0.066c0.12-0.76,0.685-1.141,1.695-1.141
		c0.531,0,0.931,0.122,1.199,0.365c0.269,0.244,0.402,0.596,0.402,1.057v1.82c0,0.209,0.027,0.365,0.082,0.471
		s0.159,0.158,0.312,0.158c0.067,0,0.145-0.009,0.23-0.027v0.438c-0.177,0.042-0.358,0.062-0.543,0.062
		c-0.261,0-0.45-0.068-0.568-0.205s-0.186-0.351-0.201-0.643h-0.023c-0.18,0.323-0.389,0.552-0.627,0.686
		C276.966,138.553,276.676,138.619,276.335,138.619z M276.495,138.092c0.258,0,0.487-0.059,0.688-0.176s0.358-0.277,0.475-0.482
		c0.116-0.204,0.174-0.414,0.174-0.631v-0.348l-0.77,0.016c-0.331,0.006-0.581,0.039-0.752,0.102s-0.302,0.159-0.393,0.289
		c-0.091,0.131-0.137,0.301-0.137,0.512c0,0.229,0.062,0.406,0.186,0.531S276.266,138.092,276.495,138.092z"/>
	<path d="M282.39,138.541v-2.68c0-0.278-0.027-0.494-0.082-0.648c-0.055-0.153-0.142-0.264-0.262-0.332
		c-0.12-0.067-0.296-0.102-0.527-0.102c-0.339,0-0.605,0.116-0.801,0.348c-0.195,0.232-0.293,0.554-0.293,0.965v2.449h-0.703v-3.324
		c0-0.492-0.008-0.793-0.023-0.902h0.664c0.003,0.014,0.005,0.049,0.008,0.105c0.003,0.058,0.006,0.123,0.01,0.197
		s0.009,0.215,0.014,0.42h0.012c0.161-0.291,0.349-0.498,0.561-0.619s0.476-0.182,0.791-0.182c0.464,0,0.803,0.115,1.018,0.346
		s0.322,0.611,0.322,1.143v2.816H282.39z"/>
	<path d="M285.757,140.201c-0.461,0-0.828-0.09-1.102-0.271c-0.273-0.181-0.449-0.438-0.527-0.771l0.707-0.102
		c0.047,0.195,0.15,0.346,0.311,0.451s0.37,0.158,0.631,0.158c0.7,0,1.051-0.41,1.051-1.23v-0.68h-0.008
		c-0.133,0.271-0.315,0.475-0.547,0.611s-0.503,0.205-0.812,0.205c-0.519,0-0.899-0.172-1.143-0.516s-0.365-0.884-0.365-1.621
		c0-0.747,0.131-1.299,0.393-1.654s0.659-0.533,1.193-0.533c0.3,0,0.56,0.068,0.779,0.205s0.39,0.332,0.51,0.584h0.008
		c0-0.078,0.005-0.213,0.016-0.406c0.011-0.192,0.021-0.298,0.031-0.316h0.668c-0.016,0.141-0.023,0.433-0.023,0.875v3.23
		C287.526,139.607,286.937,140.201,285.757,140.201z M286.827,136.428c0-0.344-0.047-0.64-0.141-0.889
		c-0.094-0.248-0.226-0.438-0.396-0.57c-0.171-0.131-0.364-0.197-0.58-0.197c-0.359,0-0.621,0.131-0.785,0.391
		c-0.164,0.261-0.246,0.683-0.246,1.266c0,0.578,0.077,0.994,0.23,1.246c0.153,0.253,0.417,0.379,0.789,0.379
		c0.222,0,0.418-0.064,0.59-0.195c0.172-0.13,0.305-0.316,0.398-0.561C286.78,137.054,286.827,136.764,286.827,136.428z"/>
	<path d="M289.144,136.576c0,0.484,0.101,0.858,0.301,1.121c0.2,0.264,0.493,0.395,0.879,0.395c0.305,0,0.549-0.061,0.732-0.184
		c0.184-0.122,0.308-0.277,0.373-0.465l0.617,0.176c-0.253,0.667-0.827,1-1.723,1c-0.625,0-1.101-0.186-1.428-0.559
		c-0.327-0.372-0.49-0.926-0.49-1.66c0-0.697,0.163-1.232,0.49-1.605c0.327-0.372,0.794-0.559,1.4-0.559
		c1.242,0,1.863,0.749,1.863,2.246v0.094H289.144z M291.433,136.037c-0.039-0.445-0.152-0.77-0.34-0.975
		c-0.188-0.204-0.457-0.307-0.809-0.307c-0.341,0-0.611,0.114-0.811,0.342c-0.199,0.229-0.307,0.541-0.322,0.939H291.433z"/>
	<path d="M263.444,148.22c-0.425,0-0.743-0.112-0.957-0.336s-0.32-0.531-0.32-0.922c0-0.438,0.144-0.773,0.432-1.008
		s0.752-0.359,1.393-0.375l0.949-0.016v-0.23c0-0.344-0.073-0.59-0.219-0.738s-0.375-0.223-0.688-0.223
		c-0.315,0-0.544,0.054-0.688,0.16s-0.229,0.277-0.258,0.512l-0.734-0.066c0.12-0.761,0.685-1.141,1.695-1.141
		c0.531,0,0.931,0.122,1.199,0.365s0.402,0.596,0.402,1.057v1.82c0,0.208,0.027,0.365,0.082,0.471s0.159,0.158,0.312,0.158
		c0.067,0,0.145-0.009,0.23-0.027v0.438c-0.177,0.042-0.358,0.062-0.543,0.062c-0.261,0-0.45-0.068-0.568-0.205
		s-0.186-0.351-0.201-0.643h-0.023c-0.18,0.323-0.389,0.552-0.627,0.686S263.785,148.22,263.444,148.22z M263.604,147.692
		c0.258,0,0.487-0.059,0.688-0.176s0.358-0.278,0.475-0.482s0.174-0.415,0.174-0.631v-0.348l-0.77,0.016
		c-0.331,0.005-0.581,0.039-0.752,0.102s-0.302,0.159-0.393,0.289s-0.137,0.301-0.137,0.512c0,0.229,0.062,0.406,0.186,0.531
		S263.375,147.692,263.604,147.692z"/>
	<path d="M268.44,148.11c-0.231,0.062-0.469,0.094-0.711,0.094c-0.562,0-0.844-0.319-0.844-0.957v-2.82h-0.488v-0.512h0.516
		l0.207-0.945h0.469v0.945h0.781v0.512h-0.781v2.668c0,0.203,0.033,0.346,0.1,0.428s0.182,0.123,0.346,0.123
		c0.094,0,0.229-0.019,0.406-0.055V148.11z"/>
	<path d="M270.663,148.11c-0.231,0.062-0.469,0.094-0.711,0.094c-0.562,0-0.844-0.319-0.844-0.957v-2.82h-0.488v-0.512h0.516
		l0.207-0.945h0.469v0.945h0.781v0.512h-0.781v2.668c0,0.203,0.033,0.346,0.1,0.428s0.182,0.123,0.346,0.123
		c0.094,0,0.229-0.019,0.406-0.055V148.11z"/>
	<path d="M271.8,146.177c0,0.484,0.101,0.858,0.301,1.121s0.493,0.395,0.879,0.395c0.305,0,0.549-0.062,0.732-0.184
		s0.308-0.277,0.373-0.465l0.617,0.176c-0.253,0.667-0.827,1-1.723,1c-0.625,0-1.101-0.187-1.428-0.559s-0.49-0.926-0.49-1.66
		c0-0.698,0.163-1.233,0.49-1.605s0.794-0.559,1.4-0.559c1.242,0,1.863,0.749,1.863,2.246v0.094H271.8z M274.089,145.638
		c-0.039-0.445-0.152-0.771-0.34-0.975s-0.457-0.307-0.809-0.307c-0.341,0-0.611,0.114-0.811,0.342s-0.307,0.541-0.322,0.939
		H274.089z"/>
	<path d="M278.171,148.142v-2.68c0-0.409-0.056-0.691-0.168-0.848s-0.313-0.234-0.605-0.234c-0.3,0-0.536,0.114-0.711,0.344
		s-0.262,0.552-0.262,0.969v2.449h-0.699v-3.324c0-0.492-0.008-0.793-0.023-0.902h0.664c0.003,0.013,0.005,0.048,0.008,0.105
		s0.006,0.123,0.01,0.197s0.009,0.214,0.014,0.42h0.012c0.151-0.3,0.324-0.508,0.52-0.625s0.434-0.176,0.715-0.176
		c0.32,0,0.573,0.063,0.76,0.191s0.315,0.331,0.389,0.609h0.012c0.146-0.284,0.322-0.488,0.529-0.613s0.458-0.188,0.752-0.188
		c0.427,0,0.737,0.116,0.932,0.348s0.291,0.612,0.291,1.141v2.816h-0.695v-2.68c0-0.409-0.056-0.691-0.168-0.848
		s-0.313-0.234-0.605-0.234c-0.308,0-0.546,0.114-0.717,0.342s-0.256,0.552-0.256,0.971v2.449H278.171z"/>
	<path d="M285.948,146.009c0,1.474-0.519,2.211-1.555,2.211c-0.651,0-1.089-0.245-1.312-0.734h-0.02
		c0.011,0.021,0.016,0.242,0.016,0.664v1.652h-0.703v-5.023c0-0.435-0.008-0.723-0.023-0.863h0.68
		c0.003,0.011,0.007,0.048,0.012,0.111s0.011,0.162,0.018,0.295s0.01,0.224,0.01,0.273h0.016c0.125-0.261,0.29-0.451,0.496-0.572
		s0.477-0.182,0.812-0.182c0.521,0,0.91,0.175,1.168,0.523S285.948,145.262,285.948,146.009z M285.21,146.024
		c0-0.589-0.079-1.009-0.238-1.262s-0.411-0.379-0.758-0.379c-0.278,0-0.497,0.059-0.654,0.176s-0.277,0.3-0.359,0.549
		s-0.123,0.572-0.123,0.971c0,0.555,0.089,0.964,0.266,1.227s0.465,0.395,0.863,0.395c0.349,0,0.604-0.128,0.764-0.385
		S285.21,146.629,285.21,146.024z"/>
	<path d="M288.448,148.11c-0.231,0.062-0.469,0.094-0.711,0.094c-0.562,0-0.844-0.319-0.844-0.957v-2.82h-0.488v-0.512h0.516
		l0.207-0.945h0.469v0.945h0.781v0.512h-0.781v2.668c0,0.203,0.033,0.346,0.1,0.428s0.182,0.123,0.346,0.123
		c0.094,0,0.229-0.019,0.406-0.055V148.11z"/>
</g>
<g>
	<path d="M5.572,131.605v4.895H4.83v-4.895H2.939v-0.609h4.523v0.609H5.572z"/>
	<path d="M8.002,139.164v-0.349h0.817v-2.469l-0.724,0.518v-0.388l0.758-0.521h0.378v2.86h0.781v0.349H8.002z"/>
</g>
<g>
	<path d="M5.572,94.105V99H4.83v-4.895H2.939v-0.609h4.523v0.609H5.572z"/>
	<path d="M7.881,101.664v-0.289c0.078-0.178,0.172-0.335,0.284-0.471c0.112-0.136,0.229-0.259,0.352-0.369
		c0.123-0.109,0.245-0.212,0.365-0.306c0.121-0.095,0.229-0.188,0.327-0.282c0.097-0.095,0.175-0.193,0.235-0.296
		c0.06-0.104,0.09-0.221,0.09-0.352c0-0.176-0.051-0.312-0.155-0.409c-0.103-0.098-0.247-0.146-0.43-0.146
		c-0.175,0-0.318,0.048-0.432,0.143s-0.18,0.229-0.199,0.399l-0.419-0.038c0.03-0.257,0.139-0.461,0.327-0.613
		c0.188-0.151,0.429-0.228,0.723-0.228c0.323,0,0.572,0.076,0.746,0.229c0.174,0.152,0.261,0.369,0.261,0.649
		c0,0.125-0.028,0.249-0.085,0.372c-0.057,0.122-0.142,0.245-0.254,0.368s-0.327,0.313-0.645,0.572
		c-0.174,0.143-0.313,0.271-0.417,0.386c-0.104,0.114-0.178,0.225-0.223,0.331h1.674v0.349H7.881z"/>
</g>
<g>
	<path d="M5.572,56.105V61H4.83v-4.895H2.939v-0.609h4.523v0.609H5.572z"/>
	<path d="M10.036,62.778c0,0.296-0.094,0.525-0.283,0.688c-0.188,0.162-0.457,0.244-0.806,0.244c-0.325,0-0.584-0.073-0.778-0.22
		c-0.193-0.146-0.309-0.363-0.345-0.65l0.423-0.039c0.055,0.38,0.288,0.569,0.699,0.569c0.207,0,0.369-0.051,0.486-0.152
		s0.176-0.253,0.176-0.453c0-0.175-0.067-0.311-0.201-0.409c-0.135-0.098-0.329-0.146-0.582-0.146H8.594v-0.355h0.223
		c0.225,0,0.399-0.049,0.523-0.146c0.124-0.099,0.186-0.233,0.186-0.407c0-0.171-0.051-0.307-0.151-0.406
		c-0.101-0.1-0.251-0.149-0.45-0.149c-0.181,0-0.327,0.047-0.438,0.14c-0.112,0.092-0.177,0.223-0.195,0.392l-0.412-0.032
		c0.03-0.263,0.139-0.468,0.327-0.615c0.188-0.146,0.429-0.221,0.723-0.221c0.322,0,0.572,0.075,0.75,0.225
		c0.178,0.149,0.268,0.357,0.268,0.625c0,0.205-0.058,0.372-0.172,0.5c-0.115,0.128-0.281,0.215-0.5,0.261v0.009
		c0.24,0.026,0.426,0.106,0.56,0.241C9.969,62.403,10.036,62.573,10.036,62.778z"/>
</g>
<g>
	<path d="M5.572,18.605V23.5H4.83v-4.895H2.939v-0.609h4.523v0.609H5.572z"/>
	<path d="M9.653,25.438v0.727H9.266v-0.727H7.753v-0.318l1.469-2.164h0.431v2.159h0.451v0.323H9.653z M9.266,23.418
		c-0.003,0.009-0.024,0.049-0.063,0.12c-0.04,0.071-0.069,0.122-0.089,0.15L8.291,24.9l-0.123,0.168l-0.037,0.046h1.134V23.418z"/>
</g>
<g>
</g>
<g>
</g>
<g>
</g>
<g>
</g>
<g>
</g>
<g>
</g>
<g>
</g>
<g>
</g>
</svg>
